<svg width="8" height="6" viewBox="0 0 8 6" fill="none" xmlns="http://www.w3.org/2000/svg">
<path d="M6.73772 1.58591L6.81969 2.07915L7.72739 1.9283L7.10697 1.24878L6.73772 1.58591ZM0.528259 4.41624L1.01328 4.5377L0.528259 4.41624ZM2.64351 5.5V6H3.01936L3.12381 5.63896L2.64351 5.5ZM4.32482 1C5.21414 1 5.86811 1.37501 6.36847 1.92304L7.10697 1.24878C6.45126 0.530619 5.54205 0 4.32482 0V1ZM1.01328 4.5377C1.19037 3.83057 1.50711 2.92529 2.04649 2.20693C2.57531 1.50265 3.29709 1 4.32482 1V0C2.90463 0 1.91225 0.720261 1.24682 1.6065C0.59196 2.47865 0.234382 3.5315 0.0432364 4.29478L1.01328 4.5377ZM1.42981 5C1.1173 5 0.959475 4.75256 1.01328 4.5377L0.0432364 4.29478C-0.190397 5.22772 0.559068 6 1.42981 6V5ZM2.64351 5H1.42981V6H2.64351V5ZM3.12381 5.63896C3.54587 4.18011 4.51918 2.46145 6.81969 2.07915L6.65575 1.09268C3.80584 1.56628 2.63433 3.73261 2.16321 5.36104L3.12381 5.63896Z" fill="#222222"/>
</svg>
