<svg width="23" height="34" viewBox="0 0 23 34" fill="none" xmlns="http://www.w3.org/2000/svg">
<path d="M11.4639 0C5.13292 0 0 5.24536 0 11.6812C0 18.1271 5.06259 25.4045 10.8629 33.6915C11.002 33.8852 11.2256 34 11.464 34C11.7023 34 11.926 33.8852 12.065 33.6915C17.8653 25.4045 22.9279 18.1276 22.9279 11.6812C22.9279 5.24562 17.7949 0 11.4641 0H11.4639ZM11.4639 1.47902C16.9787 1.47902 21.4485 6.02831 21.4485 11.6807C21.4485 17.1164 16.9699 24.069 11.4639 31.9691C5.95784 24.069 1.47921 17.1163 1.47921 11.6807C1.47921 6.02811 5.94906 1.47902 11.4639 1.47902ZM11.4639 5.17623C7.79628 5.17623 4.80743 8.1645 4.80743 11.8312C4.80743 15.4977 7.79635 18.4862 11.4639 18.4862C15.1314 18.4862 18.1203 15.4979 18.1203 11.8312C18.1203 8.16444 15.1314 5.17623 11.4639 5.17623ZM11.4639 6.65498C14.3321 6.65498 16.641 8.9637 16.641 11.8312C16.641 14.6985 14.332 17.0072 11.4639 17.0072C8.59572 17.0072 6.28676 14.6985 6.28676 11.8312C6.28676 8.96363 8.59572 6.65498 11.4639 6.65498Z" fill="black"/>
</svg>
