<svg width="69" height="73" viewBox="0 0 69 73" fill="none" xmlns="http://www.w3.org/2000/svg">
<path d="M52.7101 20.7032C52.7101 27.1792 47.5 32.4295 41.0735 32.4295C34.647 32.4295 29.4369 27.1792 29.4369 20.7032C29.4369 14.2272 34.647 8.97694 41.0735 8.97694C47.5 8.97694 52.7101 14.2272 52.7101 20.7032Z" fill="white"/>
<path d="M41.0728 0C25.6644 0 13.1455 12.5835 13.1455 28.1427C13.1455 43.6698 25.6327 56.2853 41.0728 56.2853C56.5129 56.2853 69.0002 43.7018 69.0002 28.1427C69.0002 12.6155 56.4809 0 41.0728 0ZM59.8843 45.6603V44.803C59.8843 39.3361 55.4704 34.8722 50.0294 34.8722H31.9091C26.484 34.8722 22.0542 39.32 22.0542 44.803V45.4985C17.9293 40.9213 15.4093 34.8398 15.4093 28.1436C15.4093 13.8942 26.8854 2.32999 41.0254 2.32999C55.1655 2.32999 66.6577 13.8945 66.6577 28.1436C66.6898 34.9205 64.1377 41.0505 59.8844 45.6597L59.8843 45.6603Z" fill="white"/>
<path d="M0.520242 71.9426C0.492727 71.9564 0.463492 71.9674 0.433111 71.9749C0.403876 71.9824 0.373495 71.9865 0.341394 71.9865C0.243372 71.9865 0.165416 71.9599 0.107509 71.9056C0.0507596 71.8502 0.0226722 71.7756 0.0226722 71.6815C0.0226722 71.5862 0.050761 71.5117 0.107509 71.4574C0.165405 71.4019 0.243365 71.3742 0.341394 71.3742C0.373495 71.3742 0.403876 71.3782 0.433111 71.3857C0.463492 71.3938 0.492727 71.4042 0.520242 71.4181V71.5405C0.492727 71.5221 0.465212 71.5082 0.437697 71.4989C0.411328 71.4897 0.383241 71.4851 0.35286 71.4851C0.298976 71.4851 0.256557 71.503 0.224456 71.5382C0.193502 71.5723 0.178598 71.6203 0.178598 71.6815C0.178598 71.7416 0.193502 71.7895 0.224456 71.8247C0.256557 71.8588 0.298976 71.8756 0.35286 71.8756C0.383241 71.8756 0.411329 71.8721 0.437697 71.864C0.465212 71.8548 0.492727 71.8403 0.520242 71.8201V71.9426Z" fill="white"/>
<path d="M0.967145 71.6537C0.954534 71.6479 0.942496 71.6433 0.930458 71.6399C0.917847 71.637 0.905809 71.6352 0.893772 71.6352C0.857085 71.6352 0.828424 71.6479 0.808934 71.6722C0.790591 71.6953 0.781419 71.7288 0.781419 71.7716V71.9749H0.639259V71.5336H0.781419V71.6052C0.798043 71.5763 0.818106 71.5555 0.841035 71.5428C0.865111 71.5289 0.893773 71.522 0.925872 71.522H0.941924C0.947656 71.522 0.955681 71.5232 0.964853 71.5243L0.967145 71.6537Z" fill="white"/>
<path d="M1.47305 71.7531V71.7924H1.14516C1.14975 71.8265 1.16178 71.8519 1.18185 71.8686C1.20134 71.8842 1.23 71.8917 1.26668 71.8917C1.29706 71.8917 1.32745 71.8883 1.3584 71.8802C1.38878 71.8709 1.42031 71.8571 1.45241 71.8386V71.9472C1.42031 71.9611 1.38706 71.9715 1.35381 71.9772C1.31999 71.983 1.28732 71.9865 1.25522 71.9865C1.17554 71.9865 1.11363 71.9668 1.06949 71.9264C1.02478 71.8848 1.003 71.827 1.003 71.7531C1.003 71.6826 1.02421 71.626 1.0672 71.5844C1.11134 71.5428 1.17096 71.522 1.24606 71.522C1.31484 71.522 1.36987 71.5428 1.41115 71.5844C1.45242 71.626 1.47306 71.6826 1.47306 71.7531L1.47305 71.7531ZM1.33089 71.7046C1.33089 71.6786 1.32229 71.6578 1.30567 71.6422C1.29019 71.6254 1.27013 71.6168 1.24605 71.6168C1.21854 71.6168 1.19618 71.6249 1.17956 71.6399C1.16236 71.6555 1.15204 71.6769 1.14746 71.7046L1.33089 71.7046Z" fill="white"/>
<path d="M1.77642 71.7762C1.74718 71.7762 1.72483 71.782 1.70992 71.7924C1.69617 71.8016 1.68929 71.8166 1.68929 71.8363C1.68929 71.8536 1.69445 71.8674 1.70534 71.8778C1.71738 71.8871 1.734 71.8917 1.75578 71.8917C1.78158 71.8917 1.80393 71.8825 1.82228 71.864C1.84062 71.8455 1.84979 71.8218 1.84979 71.7924V71.7762H1.77642ZM1.99196 71.723V71.9749H1.8498V71.9102C1.83145 71.9368 1.80967 71.9558 1.7856 71.968C1.76267 71.9801 1.73401 71.9864 1.70076 71.9864C1.6549 71.9864 1.61707 71.9737 1.58841 71.9472C1.56089 71.9194 1.54713 71.8848 1.54713 71.8432C1.54713 71.7912 1.56433 71.7525 1.59987 71.7277C1.63484 71.7034 1.69044 71.6907 1.76725 71.6907H1.8498V71.6814C1.8498 71.6583 1.84062 71.6422 1.82228 71.6329C1.80508 71.6225 1.77871 71.6167 1.74203 71.6167C1.71107 71.6167 1.68299 71.6202 1.65719 71.626C1.63082 71.6323 1.60732 71.641 1.58611 71.6514V71.5451C1.61477 71.5376 1.64458 71.5324 1.67553 71.5289C1.70592 71.5243 1.7363 71.522 1.76725 71.522C1.84636 71.522 1.90368 71.5382 1.93922 71.5705C1.97419 71.6017 1.99196 71.6526 1.99196 71.723L1.99196 71.723Z" fill="white"/>
<path d="M2.27479 71.4065V71.5336H2.41924V71.6329H2.27479V71.8224C2.27479 71.8426 2.27823 71.8565 2.28625 71.864C2.29542 71.8703 2.31205 71.8732 2.3367 71.8732H2.40778V71.9749H2.28854C2.23179 71.9749 2.19224 71.9633 2.16931 71.9402C2.14638 71.9171 2.13492 71.8778 2.13492 71.8224V71.6329H2.06613V71.5336H2.13492V71.4065L2.27479 71.4065Z" fill="white"/>
<path d="M2.94231 71.7531V71.7924H2.61442C2.619 71.8265 2.63104 71.8519 2.65111 71.8686C2.6706 71.8842 2.69926 71.8917 2.73594 71.8917C2.76632 71.8917 2.7967 71.8883 2.82766 71.8802C2.85804 71.8709 2.88957 71.8571 2.92167 71.8386V71.9472C2.88957 71.9611 2.85632 71.9715 2.82307 71.9772C2.78925 71.983 2.75658 71.9865 2.72448 71.9865C2.6448 71.9865 2.58289 71.9668 2.53875 71.9264C2.49404 71.8848 2.47226 71.827 2.47226 71.7531C2.47226 71.6826 2.49347 71.626 2.53646 71.5844C2.5806 71.5428 2.64022 71.522 2.71532 71.522C2.7841 71.522 2.83913 71.5428 2.88041 71.5844C2.92168 71.626 2.94232 71.6826 2.94232 71.7531L2.94231 71.7531ZM2.80015 71.7046C2.80015 71.6786 2.79155 71.6578 2.77493 71.6422C2.75945 71.6254 2.73939 71.6168 2.71531 71.6168C2.6878 71.6168 2.66544 71.6249 2.64882 71.6399C2.63162 71.6555 2.6213 71.6769 2.61672 71.7046L2.80015 71.7046Z" fill="white"/>
<path d="M3.34953 71.5983V71.3603H3.4894V71.9749H3.34953V71.9102C3.32947 71.9368 3.30826 71.9558 3.28533 71.968C3.2624 71.9801 3.23546 71.9864 3.20508 71.9864C3.15005 71.9864 3.10476 71.9651 3.06979 71.9218C3.03597 71.879 3.01935 71.8224 3.01935 71.7531C3.01935 71.6855 3.03597 71.63 3.06979 71.5867C3.10476 71.544 3.15005 71.522 3.20508 71.522C3.23374 71.522 3.26011 71.5284 3.28304 71.5405C3.30711 71.5532 3.32947 71.5723 3.34953 71.5983L3.34953 71.5983ZM3.25552 71.8848C3.2859 71.8848 3.30883 71.8744 3.32431 71.8524C3.34093 71.8293 3.34953 71.7964 3.34953 71.7531C3.34953 71.7115 3.34094 71.6803 3.32431 71.6584C3.30883 71.6352 3.2859 71.6237 3.25552 71.6237C3.22629 71.6237 3.20336 71.6352 3.18674 71.6584C3.17126 71.6803 3.16381 71.7115 3.16381 71.7531C3.16381 71.7964 3.17126 71.8293 3.18674 71.8524C3.20336 71.8744 3.22629 71.8848 3.25552 71.8848Z" fill="white"/>
<path d="M4.13646 71.8848C4.16684 71.8848 4.18977 71.8744 4.20525 71.8524C4.22187 71.8293 4.23047 71.7964 4.23047 71.7531C4.23047 71.7115 4.22187 71.6803 4.20525 71.6583C4.18977 71.6352 4.16684 71.6237 4.13646 71.6237C4.10722 71.6237 4.0843 71.6352 4.06767 71.6583C4.05219 71.6803 4.04474 71.7115 4.04474 71.7531C4.04474 71.7964 4.0522 71.8293 4.06767 71.8524C4.0843 71.8744 4.10722 71.8848 4.13646 71.8848ZM4.04474 71.5983C4.06309 71.5723 4.08372 71.5532 4.10665 71.5405C4.13073 71.5284 4.15824 71.522 4.1892 71.522C4.24251 71.522 4.28665 71.544 4.32219 71.5867C4.35715 71.63 4.37492 71.6855 4.37492 71.7531C4.37492 71.8224 4.35716 71.879 4.32219 71.9218C4.28665 71.9651 4.24251 71.9864 4.1892 71.9864C4.15824 71.9864 4.13073 71.9801 4.10665 71.968C4.08372 71.9558 4.06309 71.9368 4.04474 71.9102V71.9749H3.90258V71.3603H4.04474V71.5983Z" fill="white"/>
<path d="M4.4201 71.5336H4.55997L4.6792 71.8316L4.78009 71.5336H4.91996L4.73423 72.0165C4.71589 72.0656 4.69411 72.1002 4.67003 72.1204C4.64538 72.1401 4.61271 72.1505 4.57143 72.1505H4.49118V72.0558H4.53475C4.55882 72.0558 4.57659 72.0517 4.58749 72.0442C4.5978 72.0361 4.6064 72.0234 4.61271 72.0049L4.61729 71.9911L4.4201 71.5336Z" fill="white"/>
<path d="M5.69499 71.4042V71.529C5.66289 71.5139 5.63136 71.503 5.60098 71.4966C5.57002 71.4891 5.54136 71.4851 5.51385 71.4851C5.47716 71.4851 5.45022 71.4908 5.4336 71.5012C5.4164 71.5105 5.40837 71.5261 5.40837 71.5474C5.40837 71.563 5.41353 71.5752 5.42442 71.5844C5.43646 71.5925 5.45767 71.5994 5.48863 71.6052L5.55283 71.6191C5.61818 71.6329 5.66403 71.6531 5.6904 71.6791C5.71792 71.7057 5.73168 71.7438 5.73168 71.7947C5.73168 71.8594 5.71219 71.9079 5.67435 71.9402C5.63595 71.9714 5.57805 71.9865 5.50009 71.9865C5.4634 71.9865 5.42557 71.9824 5.38774 71.9749C5.35105 71.9691 5.31322 71.9587 5.27539 71.9449V71.8155C5.31322 71.8357 5.34933 71.8513 5.38315 71.8617C5.41812 71.8709 5.45252 71.8755 5.48634 71.8755C5.51844 71.8755 5.54251 71.8703 5.55971 71.8594C5.57805 71.849 5.58722 71.8334 5.58722 71.8132C5.58722 71.7947 5.58092 71.7808 5.56888 71.7716C5.55627 71.7612 5.53277 71.7519 5.4978 71.7438L5.44048 71.73C5.38086 71.7178 5.3373 71.6976 5.30978 71.6699C5.28341 71.6422 5.2708 71.6046 5.2708 71.5567C5.2708 71.4983 5.28915 71.4539 5.32583 71.4227C5.36367 71.3903 5.41812 71.3741 5.48863 71.3741C5.52188 71.3741 5.5557 71.3776 5.58952 71.3834C5.62277 71.388 5.65831 71.3949 5.695 71.4042L5.69499 71.4042Z" fill="white"/>
<path d="M6.09859 71.6144C6.12267 71.6144 6.14101 71.6092 6.15362 71.5983C6.16566 71.5879 6.17196 71.5723 6.17196 71.5521C6.17196 71.5307 6.16566 71.5151 6.15362 71.5058C6.14101 71.4955 6.12267 71.4897 6.09859 71.4897H6.01605V71.6144L6.09859 71.6144ZM6.10547 71.8709C6.13413 71.8709 6.15649 71.8651 6.17196 71.8524C6.18687 71.8386 6.19489 71.8195 6.19489 71.7947C6.19489 71.7687 6.18687 71.7496 6.17196 71.7369C6.15821 71.723 6.13585 71.7161 6.10547 71.7161H6.01604V71.8709L6.10547 71.8709ZM6.24534 71.6584C6.27744 71.6693 6.30151 71.6878 6.31871 71.7138C6.33705 71.7386 6.34622 71.7693 6.34622 71.8062C6.34622 71.8634 6.32674 71.9056 6.2889 71.9333C6.2505 71.961 6.1926 71.9749 6.11464 71.9749H5.86472V71.3857H6.09172C6.17254 71.3857 6.23159 71.3984 6.26827 71.4227C6.30496 71.4475 6.3233 71.4868 6.3233 71.5405C6.3233 71.57 6.31642 71.5948 6.30266 71.6144C6.28891 71.6347 6.26942 71.6491 6.24534 71.6584L6.24534 71.6584Z" fill="white"/>
<path d="M6.40737 71.3857H6.94621V71.5012H6.75132V71.9749H6.59999V71.5012H6.40739L6.40737 71.3857Z" fill="white"/>
<path d="M7.43188 71.4042V71.529C7.39978 71.5139 7.36825 71.503 7.33787 71.4966C7.30692 71.4891 7.27825 71.4851 7.25074 71.4851C7.21405 71.4851 7.18711 71.4908 7.17049 71.5012C7.15329 71.5105 7.14526 71.5261 7.14526 71.5474C7.14526 71.563 7.15042 71.5752 7.16131 71.5844C7.17335 71.5925 7.19456 71.5994 7.22552 71.6052L7.28972 71.6191C7.35507 71.6329 7.40092 71.6531 7.42729 71.6791C7.45481 71.7057 7.46857 71.7438 7.46857 71.7947C7.46857 71.8594 7.44908 71.9079 7.41124 71.9402C7.37284 71.9714 7.31494 71.9865 7.23698 71.9865C7.2003 71.9865 7.16246 71.9824 7.12463 71.9749C7.08794 71.9691 7.05011 71.9587 7.01228 71.9449V71.8155C7.05011 71.8357 7.08622 71.8513 7.12005 71.8617C7.15501 71.8709 7.18941 71.8755 7.22323 71.8755C7.25533 71.8755 7.2794 71.8703 7.2966 71.8594C7.31494 71.849 7.32411 71.8334 7.32411 71.8132C7.32411 71.7947 7.31781 71.7808 7.30577 71.7716C7.29316 71.7612 7.26966 71.7519 7.23469 71.7438L7.17737 71.73C7.11775 71.7178 7.07419 71.6976 7.04667 71.6699C7.0203 71.6422 7.00769 71.6046 7.00769 71.5567C7.00769 71.4983 7.02604 71.4539 7.06272 71.4227C7.10056 71.3903 7.15501 71.3741 7.22552 71.3741C7.25877 71.3741 7.29259 71.3776 7.32641 71.3834C7.35966 71.388 7.3952 71.3949 7.43189 71.4042L7.43188 71.4042Z" fill="white"/>
<path d="M0.339351 72.169V72.2614H0.263685C0.243622 72.2614 0.229291 72.2655 0.220119 72.273C0.212094 72.2811 0.208655 72.2932 0.208655 72.3099V72.3423H0.330179V72.4417H0.208655V72.7836H0.0687875V72.4417H0V72.3423H0.0687875V72.3099C0.0687875 72.2626 0.0813985 72.2268 0.107766 72.2037C0.135281 72.1806 0.177128 72.169 0.233878 72.169L0.339351 72.169Z" fill="white"/>
<path d="M0.727608 72.4624C0.714997 72.4567 0.702959 72.452 0.690921 72.4486C0.67831 72.4457 0.666272 72.4439 0.654234 72.4439C0.617548 72.4439 0.588887 72.4567 0.569397 72.4809C0.551054 72.504 0.541882 72.5375 0.541882 72.5803V72.7836H0.399721V72.3423H0.541882V72.4139C0.558506 72.385 0.578569 72.3642 0.601498 72.3515C0.625573 72.3377 0.654236 72.3307 0.686335 72.3307H0.702386C0.708119 72.3307 0.716144 72.3319 0.725316 72.333L0.727608 72.4624Z" fill="white"/>
<path d="M1.00422 72.4324C0.973261 72.4324 0.949759 72.4439 0.933134 72.4671C0.917657 72.489 0.910205 72.5202 0.910205 72.5618C0.910205 72.6051 0.917657 72.638 0.933134 72.6611C0.949758 72.6831 0.973261 72.6935 1.00422 72.6935C1.0346 72.6935 1.0581 72.6831 1.0753 72.6611C1.09192 72.638 1.10052 72.6051 1.10052 72.5618C1.10052 72.5202 1.09192 72.489 1.0753 72.4671C1.0581 72.4439 1.0346 72.4324 1.00422 72.4324ZM1.00422 72.3307C1.08045 72.3307 1.1395 72.3515 1.18077 72.3931C1.22319 72.4335 1.24497 72.4896 1.24497 72.5618C1.24497 72.6357 1.22319 72.6935 1.18077 72.7351C1.13949 72.7755 1.08045 72.7952 1.00422 72.7952C0.929122 72.7952 0.87008 72.7755 0.827665 72.7351C0.784672 72.6935 0.763463 72.6357 0.763463 72.5618C0.763463 72.4896 0.784672 72.4335 0.827665 72.3931C0.870083 72.3515 0.929127 72.3307 1.00422 72.3307Z" fill="white"/>
<path d="M1.75467 72.4139C1.7713 72.3879 1.79193 72.3677 1.81658 72.3538C1.84066 72.3388 1.86817 72.3307 1.89913 72.3307C1.94785 72.3307 1.98511 72.3469 2.01148 72.3792C2.039 72.4104 2.05275 72.4549 2.05275 72.5133V72.7836H1.91059V72.5525C1.91174 72.5496 1.91288 72.5468 1.91288 72.5433V72.5271C1.91288 72.4948 1.9083 72.4717 1.89913 72.4578C1.88996 72.4439 1.87505 72.437 1.85556 72.437C1.82805 72.437 1.80626 72.4486 1.79136 72.4717C1.7776 72.4936 1.77072 72.5248 1.77072 72.5664V72.7836H1.62856V72.5525C1.62856 72.5034 1.62398 72.4717 1.61481 72.4578C1.60678 72.4439 1.59245 72.437 1.57124 72.437C1.54487 72.437 1.52424 72.4486 1.50933 72.4717C1.49557 72.4936 1.48869 72.5248 1.48869 72.5664V72.7836H1.34653V72.3423H1.48869V72.407C1.50532 72.381 1.52424 72.3619 1.54602 72.3492C1.56895 72.3371 1.59417 72.3307 1.62168 72.3307C1.65206 72.3307 1.679 72.3388 1.70194 72.3538C1.72486 72.3677 1.74206 72.3879 1.75467 72.4139L1.75467 72.4139Z" fill="white"/>
<path d="M2.61635 72.2152V72.3423H2.7608V72.4416H2.61635V72.6311C2.61635 72.6513 2.61979 72.6652 2.62781 72.6727C2.63698 72.6791 2.65361 72.6819 2.67826 72.6819H2.74934V72.7836H2.63011C2.57336 72.7836 2.5338 72.7721 2.51088 72.7489C2.48795 72.7258 2.47648 72.6866 2.47648 72.6311V72.4416H2.40769V72.3423H2.47648V72.2152L2.61635 72.2152Z" fill="white"/>
<path d="M3.28839 72.5133V72.7836H3.14623V72.578C3.14623 72.5398 3.14508 72.5133 3.14394 72.4994C3.14222 72.4844 3.13935 72.4734 3.13477 72.4671C3.13018 72.4578 3.12216 72.4509 3.11184 72.4463C3.10267 72.4405 3.09235 72.437 3.08203 72.437C3.05108 72.437 3.02757 72.4486 3.01095 72.4717C2.99547 72.4948 2.98802 72.5265 2.98802 72.5664V72.7836H2.84586V72.169H2.98802V72.407C3.00751 72.381 3.02987 72.3619 3.05451 72.3492C3.07859 72.3371 3.10496 72.3307 3.13247 72.3307C3.18292 72.3307 3.22075 72.3469 3.24712 72.3793C3.27463 72.4105 3.28839 72.4549 3.28839 72.5133L3.28839 72.5133Z" fill="white"/>
<path d="M3.85511 72.5618V72.6011H3.52722C3.53181 72.6351 3.54385 72.6606 3.56391 72.6773C3.5834 72.6929 3.61206 72.7004 3.64875 72.7004C3.67913 72.7004 3.70951 72.697 3.74046 72.6889C3.77084 72.6796 3.80237 72.6658 3.83447 72.6473V72.7559C3.80237 72.7697 3.76912 72.7801 3.73588 72.7859C3.70206 72.7917 3.66938 72.7952 3.63728 72.7952C3.5576 72.7952 3.49569 72.7755 3.45156 72.7351C3.40685 72.6935 3.38506 72.6357 3.38506 72.5618C3.38506 72.4913 3.40627 72.4347 3.44927 72.3931C3.4934 72.3515 3.55302 72.3307 3.62812 72.3307C3.69691 72.3307 3.75194 72.3515 3.79321 72.3931C3.83448 72.4347 3.85512 72.4913 3.85512 72.5618L3.85511 72.5618ZM3.71295 72.5133C3.71295 72.4873 3.70435 72.4665 3.68773 72.4509C3.67225 72.4341 3.65219 72.4255 3.62811 72.4255C3.6006 72.4255 3.57824 72.4335 3.56162 72.4486C3.54442 72.4642 3.53411 72.4855 3.52952 72.5133L3.71295 72.5133Z" fill="white"/>
<path d="M4.24759 72.1944H4.41726L4.62821 72.5988V72.1944H4.77267V72.7836H4.603L4.39205 72.3793V72.7836H4.24759V72.1944Z" fill="white"/>
<path d="M5.1212 72.4324C5.09024 72.4324 5.06674 72.4439 5.05012 72.4671C5.03464 72.489 5.02719 72.5202 5.02719 72.5618C5.02719 72.6051 5.03464 72.638 5.05012 72.6611C5.06674 72.6831 5.09024 72.6935 5.1212 72.6935C5.15158 72.6935 5.17508 72.6831 5.19228 72.6611C5.2089 72.638 5.2175 72.6051 5.2175 72.5618C5.2175 72.5202 5.2089 72.489 5.19228 72.4671C5.17508 72.4439 5.15158 72.4324 5.1212 72.4324ZM5.1212 72.3307C5.19744 72.3307 5.25648 72.3515 5.29775 72.3931C5.34017 72.4335 5.36195 72.4896 5.36195 72.5618C5.36195 72.6357 5.34017 72.6935 5.29775 72.7351C5.25648 72.7755 5.19743 72.7952 5.1212 72.7952C5.04611 72.7952 4.98706 72.7755 4.94465 72.7351C4.90166 72.6935 4.88045 72.6357 4.88045 72.5618C4.88045 72.4896 4.90166 72.4335 4.94465 72.3931C4.98707 72.3515 5.04611 72.3307 5.1212 72.3307Z" fill="white"/>
<path d="M5.45957 72.6103V72.3423H5.60173V72.3862V72.4763V72.5479C5.60173 72.5837 5.60231 72.6097 5.60403 72.6265C5.60517 72.6421 5.60861 72.6531 5.6132 72.6588C5.61893 72.6681 5.62696 72.6762 5.63613 72.6819C5.6453 72.6866 5.65562 72.6889 5.66823 72.6889C5.69689 72.6889 5.71982 72.6773 5.73702 72.6542C5.75364 72.6311 5.76224 72.5999 5.76224 72.5595V72.3423H5.90211V72.7836H5.76224V72.7189C5.74046 72.7455 5.71753 72.7645 5.69345 72.7767C5.67052 72.7888 5.64415 72.7952 5.61549 72.7952C5.56505 72.7952 5.52607 72.7801 5.49855 72.7489C5.47218 72.7166 5.45957 72.6704 5.45957 72.6103L5.45957 72.6103Z" fill="white"/>
<path d="M6.47828 72.5133V72.7836H6.33612V72.578C6.33612 72.5398 6.33497 72.5133 6.33382 72.4994C6.3321 72.4844 6.32924 72.4734 6.32465 72.467C6.32007 72.4578 6.31204 72.4509 6.30172 72.4462C6.29255 72.4405 6.28223 72.437 6.27192 72.437C6.24096 72.437 6.21746 72.4486 6.20083 72.4717C6.18536 72.4948 6.1779 72.5265 6.1779 72.5664V72.7836H6.03574V72.3423H6.1779V72.407C6.19739 72.381 6.21975 72.3619 6.2444 72.3492C6.26847 72.3371 6.29484 72.3307 6.32236 72.3307C6.3728 72.3307 6.41063 72.3469 6.437 72.3792C6.46452 72.4104 6.47828 72.4549 6.47828 72.5133L6.47828 72.5133Z" fill="white"/>
<path d="M6.89285 72.1944H7.14278C7.2173 72.1944 7.27462 72.2117 7.31475 72.2452C7.3543 72.2776 7.37437 72.325 7.37437 72.3862C7.37437 72.448 7.3543 72.4959 7.31475 72.5294C7.27462 72.5618 7.2173 72.578 7.14278 72.578H7.04418V72.7836H6.89286L6.89285 72.1944ZM7.04418 72.3053V72.4694H7.12672C7.15538 72.4694 7.17774 72.4624 7.19322 72.4486C7.20984 72.4336 7.21844 72.4128 7.21844 72.3862C7.21844 72.3602 7.20984 72.34 7.19322 72.3261C7.17774 72.3123 7.15538 72.3053 7.12672 72.3053L7.04418 72.3053Z" fill="white"/>
<path d="M7.80233 72.4624C7.78972 72.4567 7.77768 72.452 7.76565 72.4486C7.75303 72.4457 7.741 72.4439 7.72896 72.4439C7.69227 72.4439 7.66361 72.4567 7.64412 72.4809C7.62578 72.504 7.61661 72.5375 7.61661 72.5803V72.7836H7.47445V72.3423H7.61661V72.4139C7.63323 72.385 7.65329 72.3642 7.67622 72.3515C7.7003 72.3377 7.72896 72.3307 7.76106 72.3307H7.77711C7.78284 72.3307 7.79087 72.3319 7.80004 72.333L7.80233 72.4624Z" fill="white"/>
<path d="M8.07845 72.4324C8.04749 72.4324 8.02399 72.4439 8.00737 72.4671C7.99189 72.489 7.98444 72.5202 7.98444 72.5618C7.98444 72.6051 7.99189 72.638 8.00737 72.6611C8.02399 72.6831 8.04749 72.6935 8.07845 72.6935C8.10883 72.6935 8.13233 72.6831 8.14953 72.6611C8.16615 72.638 8.17475 72.6051 8.17475 72.5618C8.17475 72.5202 8.16615 72.489 8.14953 72.4671C8.13233 72.4439 8.10883 72.4324 8.07845 72.4324ZM8.07845 72.3307C8.15469 72.3307 8.21373 72.3515 8.255 72.3931C8.29742 72.4335 8.3192 72.4896 8.3192 72.5618C8.3192 72.6357 8.29742 72.6935 8.255 72.7351C8.21373 72.7755 8.15468 72.7952 8.07845 72.7952C8.00335 72.7952 7.94431 72.7755 7.9019 72.7351C7.8589 72.6935 7.83769 72.6357 7.83769 72.5618C7.83769 72.4896 7.8589 72.4335 7.9019 72.3931C7.94431 72.3515 8.00336 72.3307 8.07845 72.3307Z" fill="white"/>
<path d="M8.42113 72.3423H8.56329V72.7767C8.56329 72.835 8.54839 72.8795 8.51972 72.9107C8.49221 72.9431 8.45151 72.9592 8.3982 72.9592H8.32712V72.8645H8.35234C8.37814 72.8645 8.39591 72.8581 8.40508 72.846C8.4154 72.835 8.42113 72.8119 8.42113 72.7767L8.42113 72.3423ZM8.42113 72.169H8.56329V72.2845H8.42113V72.169Z" fill="white"/>
<path d="M9.1343 72.5618V72.6011H8.8064C8.81099 72.6351 8.82303 72.6606 8.84309 72.6773C8.86258 72.6929 8.89124 72.7004 8.92793 72.7004C8.95831 72.7004 8.98869 72.697 9.01965 72.6889C9.05003 72.6796 9.08155 72.6658 9.11365 72.6473V72.7559C9.08155 72.7697 9.04831 72.7801 9.01506 72.7859C8.98124 72.7917 8.94856 72.7952 8.91646 72.7952C8.83678 72.7952 8.77487 72.7755 8.73074 72.7351C8.68603 72.6935 8.66425 72.6357 8.66425 72.5618C8.66425 72.4913 8.68545 72.4347 8.72845 72.3931C8.77259 72.3515 8.8322 72.3307 8.9073 72.3307C8.97609 72.3307 9.03112 72.3515 9.07239 72.3931C9.11366 72.4347 9.1343 72.4913 9.1343 72.5618L9.1343 72.5618ZM8.99213 72.5133C8.99213 72.4873 8.98354 72.4665 8.96691 72.4509C8.95143 72.4341 8.93137 72.4255 8.9073 72.4255C8.87978 72.4255 8.85743 72.4335 8.8408 72.4486C8.8236 72.4642 8.81329 72.4855 8.8087 72.5133L8.99213 72.5133Z" fill="white"/>
<path d="M9.59588 72.3561V72.4694C9.57753 72.4572 9.55804 72.448 9.53855 72.4416C9.51849 72.4359 9.49843 72.4324 9.47894 72.4324C9.43881 72.4324 9.40843 72.4439 9.38722 72.467C9.36544 72.4902 9.35512 72.5219 9.35512 72.5618C9.35512 72.6034 9.36544 72.6357 9.38722 72.6588C9.40843 72.6819 9.43881 72.6935 9.47894 72.6935C9.50015 72.6935 9.52078 72.6906 9.54085 72.6842C9.56034 72.6785 9.57868 72.6681 9.59588 72.6542V72.7697C9.57409 72.779 9.55231 72.7848 9.52938 72.7882C9.50645 72.7928 9.48352 72.7952 9.4606 72.7952C9.38092 72.7952 9.31901 72.7755 9.27487 72.7351C9.23016 72.6935 9.20838 72.6357 9.20838 72.5618C9.20838 72.4896 9.23016 72.4335 9.27487 72.3931C9.31901 72.3515 9.38092 72.3307 9.4606 72.3307C9.48352 72.3307 9.50645 72.333 9.52938 72.3377C9.55231 72.3411 9.5741 72.3469 9.59588 72.3561H9.59588Z" fill="white"/>
<path d="M9.86999 72.2152V72.3423H10.0144V72.4416H9.86999V72.6311C9.86999 72.6513 9.87343 72.6652 9.88145 72.6727C9.89062 72.6791 9.90725 72.6819 9.93189 72.6819H10.003V72.7836H9.88374C9.82699 72.7836 9.78744 72.7721 9.76451 72.7489C9.74158 72.7258 9.73012 72.6866 9.73012 72.6311V72.4416H9.66133V72.3423H9.73012V72.2152L9.86999 72.2152Z" fill="white"/>
</svg>
