<svg width="1124" height="770" viewBox="0 0 1124 770" fill="none" xmlns="http://www.w3.org/2000/svg">
<path d="M935.297 444.78H763.138C760.866 444.78 759.009 442.903 759.009 440.613V427.271C759.009 424.981 760.866 423.103 763.138 423.103H935.297C937.57 423.103 939.432 424.981 939.432 427.271V440.613C939.432 442.903 937.57 444.78 935.297 444.78Z" fill="#F9795A"/>
<path d="M802.731 444.78L769.563 641.06C769.474 641.697 768.775 642.183 767.939 642.183C766.348 642.183 765.106 641.115 765.273 639.892L790.814 444.78H802.731Z" fill="#C7D8F9"/>
<path d="M802.73 444.78L800.586 457.463C799.117 452.412 789.882 451.882 789.882 451.882L790.814 444.78H802.73Z" fill="#F17497"/>
<path d="M930.502 768.804C929.665 768.804 928.967 768.005 928.878 766.955L895.71 444.78H907.627L908.558 456.435L933.163 765.039C933.335 767.05 932.093 768.804 930.502 768.804Z" fill="#FDA079"/>
<path d="M909.285 465.586C906.253 455.664 896.519 452.619 896.519 452.619L896.514 452.608L895.71 444.78H907.627L908.558 456.435L909.285 465.586Z" fill="#F9795A"/>
<path fill-rule="evenodd" clip-rule="evenodd" d="M778.37 333.523C778.37 333.523 838.792 243.37 916.89 211.381C927.266 207.13 937.21 218.422 931.877 228.352C931.789 228.517 931.694 228.684 931.606 228.853C922.222 245.659 830.644 289.573 778.37 333.523Z" fill="url(#paint0_linear_34_2633)"/>
<path fill-rule="evenodd" clip-rule="evenodd" d="M758.394 357.943C758.394 357.943 868.351 263.127 978.575 253.145C985.298 252.537 991.561 257.271 992.415 264.018C992.969 268.412 991.373 274 984.844 280.63C967.439 298.312 838.453 321.304 758.394 357.943Z" fill="url(#paint1_linear_34_2633)"/>
<path fill-rule="evenodd" clip-rule="evenodd" d="M578.653 7.46365C559.808 -13.1398 523.519 15.4489 523.519 15.4489C523.519 15.4489 517.949 71.7506 510.532 76.9161C503.116 82.0817 505.971 27.8424 505.971 27.8424C489.825 34.4154 460.476 73.9773 460.476 73.9773C460.476 73.9773 488.267 121.652 479.82 124.819C471.367 127.985 457.344 81.3397 457.344 81.3397C444.795 93.6495 439.956 118.432 439.956 118.432C437.324 156.033 485.363 157.493 485.363 157.493C485.363 157.493 494.641 174.224 494.303 199.183V199.184C494.303 199.184 493.815 204.016 494.586 211.388L498.643 209.258C498.405 207.988 498.222 206.737 498.105 205.507L498.1 205.485L498.094 205.432C498.05 204.654 497.984 203.546 497.911 202.19V202.178C497.889 199.083 497.795 196.837 497.645 195.255V195.241C497.39 185.618 497.568 172.81 500.051 168.84C500.051 168.84 499.275 168.44 498.216 167.421C498.804 167.874 499.413 168.345 500.051 168.84C514.745 180.187 550.745 164.459 568.011 150.305C585.282 136.152 574.014 135.081 558.987 131.627C543.966 128.173 523.364 141.982 515.111 141.869C506.857 141.756 514.468 133.31 527.876 127.54C541.284 121.768 554.448 131.377 576.303 122.44C598.164 113.503 593.618 65.6886 593.618 65.6886C581.563 77.738 551.649 83.2819 548.074 78.8051C544.498 74.3283 582.938 54.778 588.109 50.1538C593.286 45.53 597.499 28.0676 578.653 7.46365Z" fill="url(#paint2_linear_34_2633)"/>
<path fill-rule="evenodd" clip-rule="evenodd" d="M790.292 35.4362C762.423 4.96964 708.769 47.2429 708.769 47.2429C708.769 47.2429 700.533 130.496 689.569 138.134C678.605 145.773 682.824 65.5698 682.824 65.5698C658.945 75.2887 615.545 133.789 615.545 133.789C615.545 133.789 656.645 204.285 644.152 208.968C631.658 213.65 610.917 144.675 610.917 144.675C592.36 162.877 585.204 199.523 585.204 199.523C581.313 255.122 652.344 257.282 652.344 257.282C652.344 257.282 666.068 282.022 665.569 318.93C665.569 318.93 664.843 326.076 665.99 336.975L671.982 333.825C671.638 331.947 671.367 330.098 671.189 328.282L671.184 328.249L671.178 328.171C671.106 327.02 671.006 325.377 670.907 323.371V323.355C670.868 318.779 670.729 315.46 670.513 313.119V313.097C670.136 298.87 670.402 279.932 674.071 274.061C674.071 274.061 672.919 273.468 671.356 271.962C672.22 272.632 673.124 273.329 674.071 274.061C695.794 290.84 749.027 267.582 774.562 246.654C800.098 225.725 783.436 224.142 761.215 219.034C739 213.927 708.542 234.347 696.337 234.179C684.132 234.012 695.389 221.523 715.21 212.99C735.037 204.457 754.503 218.666 786.823 205.449C819.143 192.233 812.425 121.532 812.425 121.532C794.605 139.349 750.368 147.548 745.08 140.927C739.792 134.308 796.628 105.398 804.282 98.561C811.931 91.7238 818.161 65.9015 790.292 35.4362Z" fill="url(#paint3_linear_34_2633)"/>
<path fill-rule="evenodd" clip-rule="evenodd" d="M3.46819 256.189C3.42366 209.811 79.3874 203.49 79.3874 203.49C79.3874 203.49 148.883 265.629 163.654 263.514C178.426 261.399 114.529 198.692 114.529 198.692C141.478 188.407 221.238 203.276 221.238 203.276C221.238 203.276 240.566 292.694 254.362 286.979C268.163 281.264 233.244 208.683 233.244 208.683C262.216 209.443 295.711 234.09 295.711 234.09C340.796 276.823 284.027 332.975 284.027 332.975C284.027 332.975 291.388 363.815 319.606 393.778C319.606 393.778 325.586 399.096 332.858 408.935L325.559 410.935C324.428 409.125 323.258 407.398 322.034 405.761L322.011 405.734L321.956 405.667C321.152 404.661 319.994 403.242 318.569 401.515L318.564 401.51L318.553 401.504C315.138 397.711 312.749 394.873 311.164 392.783L311.153 392.766C300.738 380.777 286.255 365.413 278.811 363.396C278.811 363.396 279.31 362.027 279.465 359.591C279.254 360.804 279.038 362.072 278.811 363.396C273.595 393.822 212.309 415.449 175.543 417.79C138.784 420.137 151.288 406.074 165.705 384.872C180.122 363.664 220.551 357.133 230.456 347.652C240.366 338.171 221.704 336.523 198.973 344.685C176.247 352.848 170.948 379.425 134.422 393.303C97.8948 407.181 50.1439 343.914 50.1439 343.914C78.2235 344.914 120.764 317.796 120.121 308.304C119.484 298.815 50.9754 318.556 39.5349 318.79C28.0892 319.03 3.51803 302.567 3.46819 256.189Z" fill="url(#paint4_linear_34_2633)"/>
<path d="M839.041 450.479C839.041 469.866 837.306 488.85 833.975 507.276C807.442 654.306 679.758 765.782 526.235 765.782C398.546 765.782 288.738 688.677 240.122 578.134C233.715 563.569 228.372 548.418 224.192 532.785C217.164 506.549 213.423 478.956 213.423 450.479C213.423 427.193 215.928 404.499 220.678 382.648C233.676 322.891 263.485 269.486 304.862 227.715C316.596 215.86 329.272 204.94 342.764 195.081C394.3 157.394 457.687 135.173 526.235 135.173C534.189 135.173 542.076 135.473 549.88 136.067C560.883 136.898 571.73 138.299 582.389 140.244C655.204 153.546 719.251 192.26 765.15 246.942C774.401 257.965 782.92 269.641 790.614 281.889C821.288 330.651 839.041 388.476 839.041 450.479Z" fill="#242E6C"/>
<path d="M839.035 450.485C839.035 469.871 837.301 488.856 833.975 507.281C830.533 526.338 825.395 544.803 818.716 562.497C773.902 681.336 659.86 765.782 526.235 765.782C472.969 765.782 422.818 752.362 378.919 728.701C374.878 726.523 370.893 724.26 366.952 721.908C328.945 699.203 296.11 668.609 270.691 632.361C258.807 615.444 248.547 597.297 240.122 578.14C233.715 563.575 228.366 548.418 224.187 532.791C259.522 541.305 315.305 550.412 382.172 546.127C393.785 545.389 405.729 544.238 417.962 542.613C461.03 536.897 507.639 525.26 555.634 504.516C669.465 455.317 746.055 356.803 790.614 281.891C821.282 330.657 839.035 388.481 839.035 450.485Z" fill="#242E6C"/>
<path d="M839.041 450.479C839.041 469.871 837.306 488.856 833.975 507.276C821.243 505.421 804.66 503.605 794.428 504.817C775.987 507.002 757.546 545.272 719.583 546.775C681.615 548.278 634.973 519.03 585.077 538.713C535.181 558.39 509.152 537.618 500.472 523.405C491.792 509.192 522.166 476.391 519.417 462.178C516.663 447.965 523.253 399.856 565.555 399.856C607.858 399.856 625.373 376.553 632.806 368.15C654.112 344.065 670.768 365.96 688.128 347.378C705.483 328.791 675.108 295.989 688.128 274.122C701.143 252.255 765.145 246.941 765.145 246.941C811.244 301.865 839.041 372.899 839.041 450.479Z" fill="#B1C9F6"/>
<path d="M377.899 396.889C362.712 418.444 383.325 463.273 370.305 486.23C357.291 509.192 332.343 504.817 313.902 515.751C297.889 525.243 291.476 564.402 240.128 578.14C222.956 539.115 213.423 495.917 213.423 450.479C213.423 427.187 215.928 404.499 220.678 382.654C231.154 371.989 245.51 362.407 265.087 357.217C326.917 340.814 328.452 294.947 353.411 294.072C414.177 291.942 393.086 375.33 377.899 396.889Z" fill="#B1C9F6"/>
<path d="M611.111 277.949C611.111 277.949 573.149 270.295 552.535 283.415C531.927 296.535 490.168 320.042 495.589 333.707C501.015 347.378 540.607 357.764 556.876 357.217C573.149 356.669 562.069 324.249 640.943 333.707C660.935 336.109 661.224 291.82 611.111 277.949Z" fill="#B1C9F6"/>
<path d="M582.389 140.244C563.155 174.181 527.953 217.164 468.507 232.693C396.778 251.424 335.763 237.891 304.862 227.715C316.596 215.86 329.272 204.94 342.764 195.081C394.3 157.394 457.687 135.173 526.235 135.173C534.189 135.173 542.076 135.473 549.88 136.067C560.883 136.898 571.73 138.299 582.389 140.244Z" fill="#B1C9F6"/>
<path d="M818.716 562.497C773.902 681.336 659.86 765.782 526.235 765.782C472.969 765.782 422.818 752.362 378.919 728.701C374.878 726.523 370.893 724.26 366.952 721.908C447.694 715.969 649.168 688.163 818.716 562.497Z" fill="#1B2251"/>
<path d="M430.455 653.122C413.855 665.324 409.903 702.817 399.283 708.013C393.956 710.622 385.759 720.008 378.924 728.696C335.824 705.466 298.748 672.358 270.691 632.361C289.47 619.226 324.677 597.041 349.104 596.432C349.104 596.432 361.309 596.292 370.361 571.296C373.925 561.441 377.749 552.703 382.172 546.127C388.984 536.009 397.216 531.003 408.135 534.953C412.813 536.641 415.756 539.283 417.968 542.613C424.281 552.094 424.68 567.156 442.472 581.676C466.511 601.292 447.051 640.92 430.455 653.122Z" fill="#F78A87"/>
<path d="M667.881 229.452C667.881 229.452 664.61 170.192 592.288 159.887C592.288 159.887 589.622 229.452 667.881 229.452Z" fill="#0077FF"/>
<path d="M664.61 229.045C664.61 229.045 722.604 240.091 746.078 170.376C746.078 170.376 679.143 151.537 664.61 229.045Z" fill="#0077FF"/>
<path d="M665.408 204.324C665.408 204.324 691.143 183.325 670.075 147.904C670.075 147.904 637.789 169.932 665.408 204.324Z" fill="#0077FF"/>
<path d="M664.61 229.045C664.61 229.045 655.919 267.059 657.427 280.455H664.61C664.61 280.455 661.839 245.075 668.651 227.213L664.61 229.045Z" fill="#0077FF"/>
<path d="M744.687 322.265C744.687 322.265 743.14 294.227 708.919 289.35C708.919 289.35 707.655 322.265 744.687 322.265Z" fill="#0077FF"/>
<path d="M743.14 322.075C743.14 322.075 770.582 327.304 781.69 294.313C781.69 294.313 750.019 285.399 743.14 322.075Z" fill="#0077FF"/>
<path d="M743.517 310.376C743.517 310.376 755.695 300.441 745.729 283.68C745.729 283.68 730.448 294.103 743.517 310.376Z" fill="#0077FF"/>
<path d="M743.14 322.075C743.14 322.075 739.028 340.065 739.742 346.401H743.14C743.14 346.401 741.832 329.662 745.052 321.209L743.14 322.075Z" fill="#0077FF"/>
<path d="M625.556 255.121C625.556 255.121 624.586 237.514 603.102 234.452C603.102 234.452 602.304 255.121 625.556 255.121Z" fill="#0077FF"/>
<path d="M624.586 255C624.586 255 641.818 258.282 648.791 237.568C648.791 237.568 628.904 231.971 624.586 255Z" fill="#0077FF"/>
<path d="M624.824 247.655C624.824 247.655 632.473 241.415 626.21 230.891C626.21 230.891 616.615 237.436 624.824 247.655Z" fill="#0077FF"/>
<path d="M624.586 255C624.586 255 622.003 266.294 622.451 270.275H624.586C624.586 270.275 623.765 259.762 625.788 254.455L624.586 255Z" fill="#0077FF"/>
<path d="M796.268 214.576C796.268 214.576 790.703 213.481 789.428 214.576C788.153 215.671 782.117 221.855 783.408 223.885C784.7 225.916 790.902 222.204 792.188 221.854C793.479 221.505 797.082 220.086 797.082 220.086L796.268 214.576Z" fill="#5C2B03"/>
<path d="M855.436 413.002L861.406 415.243C861.406 415.243 887.335 379 890.522 347.11C891.093 341.417 890.905 335.903 889.674 330.808C889.674 330.808 889.924 329.349 890.367 326.774C890.572 325.567 890.827 324.12 891.115 322.461C891.958 317.589 893.116 310.929 894.441 303.347C897.495 285.895 901.447 263.584 904.518 247.183L902.91 246.663L885.506 241.004L881.909 229.491L868.95 226.052C868.95 226.052 866.056 231.76 863.468 258.722C862.991 262.258 862.559 266.158 862.232 270.388C861.223 283.296 861.151 299.309 863.462 317.617C864.061 322.304 864.809 327.143 865.741 332.109C866.422 335.757 866.528 340.724 866.239 346.423C864.931 372.491 855.436 413.002 855.436 413.002Z" fill="#28326F"/>
<path d="M862.232 270.388L890.367 326.774C890.572 325.567 890.827 324.12 891.116 322.461C891.958 317.589 893.116 310.929 894.441 303.347C897.495 285.895 901.447 263.584 904.518 247.183L902.911 246.663L885.506 241.004L881.909 229.491L868.95 226.052C868.95 226.052 866.057 231.76 863.468 258.722C862.991 262.258 862.559 266.158 862.232 270.388Z" fill="#222956"/>
<path d="M874.609 233.288L875.263 227.657C886.177 230.579 915.332 219.494 915.332 219.494C915.332 219.494 925.902 228.861 924.516 251.314C923.84 262.273 922.599 308.84 921.307 322.623C920.841 327.617 920.431 331.171 920.265 332.59L920.259 332.606C920.21 333.037 920.359 333.445 920.581 333.825C922.482 337.082 924.056 340.473 925.348 343.937C938.035 378.011 923.397 419.975 923.397 419.975L919.594 418.432C919.594 418.432 911.264 371.732 904.496 351.099C903.349 347.602 902.245 344.853 901.237 343.21C898.293 338.423 895.561 330.595 893.083 321.293C888.394 303.701 884.625 280.814 882.114 263.149C881.77 263.165 874.609 233.288 874.609 233.288Z" fill="#28326F"/>
<path d="M796.268 214.576L797.082 220.086C797.082 220.086 797.443 220.086 798.075 220.04C800.064 219.904 804.898 219.63 810.363 219.038C818.583 218.219 828.344 216.761 832.229 214.348C838.143 210.706 847.854 199.552 854.178 188.396C854.362 188.123 854.494 187.85 854.633 187.577C857.931 181.657 860.231 175.784 860.414 171.095C860.547 168.226 860.231 165.767 859.644 163.627C858.879 160.805 857.615 158.573 856.301 156.889C856.124 156.616 855.941 156.342 855.67 156.115C853.502 153.52 851.379 152.427 851.379 152.427C850.293 151.971 849.118 152.518 847.904 153.838V153.884C846.906 154.931 845.826 156.525 844.784 158.528L844.695 158.665C844.468 159.074 844.24 159.529 843.969 160.03C843.88 160.121 843.836 160.258 843.791 160.349C843.293 161.396 842.799 162.489 842.3 163.627C836.741 175.83 830.827 194.315 825.905 199.824C823.782 202.192 814.065 206.836 806.344 210.297C800.785 212.755 796.268 214.576 796.268 214.576Z" fill="#804516"/>
<path d="M853.763 164.997C857.188 166.598 861.323 167.688 866.328 167.964C885.091 169 889.353 152.422 890.124 141.419C887.419 140.432 885.052 140.525 883.688 140.599C882.358 140.673 880.967 140.81 879.825 140.953C877.53 139.744 873.406 133.874 871.023 124.056L870.214 124.434L856.679 130.849C856.679 130.849 858.114 135.289 859.178 139.538C860.004 142.864 860.597 146.076 860.104 146.975C859.034 147.412 858.397 147.687 858.397 147.687L858.391 147.702C858.258 148.05 855.309 155.61 853.763 164.997Z" fill="#804516"/>
<path d="M849.068 177.405C849.212 177.783 849.367 178.151 849.539 178.529C854.289 188.844 863.086 231.573 863.086 231.573C861.833 239.256 920.365 230.066 920.514 223.071C922.576 215.654 913.198 203.737 907.91 197.76C907.251 197.008 906.657 196.202 906.136 195.353C904.834 193.221 904.002 190.814 903.742 188.299C902.705 178.383 903.099 169.091 903.01 163.44V163.439C901.979 162.669 900.976 161.956 900.045 161.278C898.626 160.232 897.368 159.255 896.442 158.263C895.422 157.182 894.785 156.076 894.713 154.829C894.657 153.886 894.685 152.918 894.785 151.951C894.829 151.494 894.884 151.037 894.957 150.58C895.688 145.781 897.673 141.429 897.673 141.429C892.64 139.376 883.688 140.599 883.688 140.599C883.688 140.599 883.699 141.1 883.705 141.92C883.732 145.216 883.705 153.68 882.657 155.281C881.344 157.275 857.366 166.013 856.096 163.307C854.849 160.645 858.264 148.173 858.391 147.702L858.397 147.687C850.365 150.865 847.494 153.532 847.494 153.532C852.333 156.696 845.327 167.399 849.068 177.405Z" fill="#C0D3F8"/>
<path d="M865.225 88.2739C865.253 87.4541 865.879 78.6197 879.232 78.1575C879.232 78.1575 872.669 78.9463 871.533 81.8556C871.533 81.8556 876.006 78.2609 879.642 79.4174C883.284 80.5733 885.423 87.0021 885.445 89.1168C885.467 91.2308 883.444 98.0475 881.133 98.6269C880.257 98.8463 879.248 98.7878 878.334 98.6302C878.949 99.5978 879.553 100.666 880.13 101.857C885.456 112.88 879.958 123.652 875.452 122.462C872.558 121.699 871.738 126.673 871.738 126.673L843.636 103.743C843.636 103.743 853.962 82.2152 865.225 88.2739Z" fill="#222956"/>
<path d="M856.679 130.852C856.679 130.852 858.114 135.288 859.178 139.541C867.088 137.316 869.493 128.931 870.214 124.437L856.679 130.852Z" fill="#5C2B03"/>
<path d="M855.01 135.549C855.01 135.549 873.938 131.133 871.029 119.291C868.119 107.45 868.606 98.9051 856.395 101.224C844.185 103.543 842.954 108.646 842.971 112.837C842.993 117.027 850.01 136.393 855.01 135.549Z" fill="#804516"/>
<path d="M841.907 106.113C843.941 101.822 846.341 102.051 847.838 102.811C856.734 94.516 865.458 101.294 865.458 101.294C868.817 109.471 876.095 112.812 876.095 112.812C876.095 112.812 873.185 115.814 864.754 115.748C862.183 115.727 859.594 114.536 857.238 112.894C861.783 117.507 867.11 120.315 867.11 120.315C856.557 118.279 849.484 105.966 848.758 104.659C847.866 105.989 846.153 108.821 846.009 111.213C845.815 114.463 846.923 120.775 845.078 121.014C845.078 121.014 838.859 112.55 841.907 106.113Z" fill="#222956"/>
<path d="M847.494 153.531C847.494 153.531 842.938 161.545 842.25 163.608C842.25 163.608 848.164 163.379 850.553 167.962C850.553 167.962 851.124 154.61 847.494 153.531Z" fill="#C0D3F8"/>
<path d="M878.844 217.216C890.39 217.093 900.167 205.01 906.136 195.353C904.834 193.221 904.003 190.814 903.742 188.299C902.705 178.383 903.099 169.091 903.01 163.44V163.439C901.98 162.668 900.976 161.956 900.045 161.278C898.626 160.232 897.368 159.255 896.442 158.263C886.986 174.369 863.191 217.383 878.844 217.216Z" fill="#B1C9F6"/>
<path d="M835.206 223.546L836.791 229.374C836.791 229.374 838.775 229.01 841.94 228.417C842.888 228.235 843.431 228.099 843.431 228.099C845.959 227.598 848.985 226.916 852.283 226.187H852.327C857.975 224.821 864.3 223.182 869.626 221.36C873.379 220.04 876.632 218.629 878.844 217.217C879.071 217.08 879.249 216.944 879.476 216.761C884.758 212.892 891.038 201.509 895.916 189.307C896.597 187.622 897.229 185.937 897.861 184.299C900.117 178.197 901.924 172.187 903.01 166.997C903.687 163.901 904.141 161.077 904.23 158.755C904.274 157.936 904.318 157.163 904.274 156.433C904.185 143.229 897.678 141.408 897.678 141.408C897.545 141.363 897.407 141.317 897.229 141.272C896.098 141.09 894.923 141.863 893.704 143.366C892.169 145.233 890.545 148.283 888.871 151.971C886.299 157.845 883.588 165.449 881.055 173.007C879.659 177.15 878.301 181.294 876.948 185.118C876.178 187.44 875.413 189.625 874.687 191.629C873.29 195.454 872.021 198.549 870.896 200.507C870.17 201.782 868.091 203.558 865.336 205.561C860.547 209.067 853.547 213.301 847.45 216.761C844.922 218.219 842.528 219.539 840.538 220.632C837.328 222.408 835.206 223.546 835.206 223.546Z" fill="#804516"/>
<path d="M888.887 151.99C897.584 149.574 904.291 156.418 904.291 156.418C904.18 143.235 897.673 141.43 897.673 141.43C895.051 140.338 892.019 144.909 888.887 151.99Z" fill="#C0D3F8"/>
<path d="M901.309 423.103H931.373C931.373 423.103 932.093 418.488 930.519 414.985C929.017 411.622 926.662 410.091 927.227 406.024C925.315 408.007 922.2 410.225 917.854 409.639C917.322 410.51 914.418 415.164 912.638 416.455C910.676 417.879 901.913 417.371 901.309 423.103Z" fill="#1D2453"/>
<path d="M836.757 423.103H866.822C866.822 423.103 867.947 418.271 865.973 414.985C864.222 412.075 864.893 410.415 866.19 408.007C864.826 408.572 863.064 409.08 861.124 408.968C859.627 408.885 858.042 408.197 856.656 407.382C855.359 408.873 849.822 415.198 848.087 416.455C846.125 417.879 837.362 417.371 836.757 423.103Z" fill="#1D2453"/>
<path d="M794.738 236.308L786.612 239.668C784.406 240.578 783.242 243.001 783.813 245.274L782.943 245.633C779.634 234.059 783.669 222.387 792.737 218.639C794.012 218.112 795.325 217.766 796.644 217.598C800.824 217.043 805.175 218.177 809.088 220.637C812.807 222.97 816.122 226.503 818.511 230.937L817.313 231.431C816.133 229.415 813.627 228.51 811.416 229.42L803.285 232.78C802.653 231.216 801.145 230.27 799.56 230.27C799.061 230.27 798.545 230.367 798.052 230.568L796.927 231.034C794.887 231.879 793.901 234.25 794.738 236.308ZM833.421 250.547L826.276 232.981C825.345 230.689 822.851 229.499 820.534 230.143C818.167 225.658 814.908 222.013 811.211 219.455C807.32 216.754 802.947 215.265 798.634 215.283C796.356 215.293 794.089 215.727 791.922 216.623C781.762 220.819 777.211 233.755 780.936 246.459L780.382 246.688C780.382 246.688 778.647 246.566 775.732 246.566C766.531 246.566 745.618 247.798 730.946 258.07C730.946 258.07 730.026 259.06 729.987 260.572C729.97 261.071 730.054 261.631 730.297 262.229C730.297 262.229 753.849 246.856 775.637 262.653C776.973 263.619 778.27 264.516 779.534 265.346L781.491 270.153C784.727 278.125 793.845 281.97 801.755 278.703L825.86 268.744C832.905 265.836 836.309 257.646 833.421 250.547Z" fill="#8246F2"/>
<path d="M779.534 265.346C778.27 264.516 776.973 263.619 775.637 262.653C753.849 246.856 730.297 262.229 730.297 262.229C730.054 261.631 729.97 261.071 729.987 260.572C733.285 258.383 745.64 251.102 760.954 253.59C778.896 256.507 782.139 259.022 779.534 265.346Z" fill="#6518A8"/>
<path d="M825.861 268.744L821.704 270.461C827.939 267.031 820.218 252.54 815.706 242.973C811.189 233.405 804.36 237.778 804.36 237.778C802.797 234.572 799.444 234.745 799.444 234.745C799.266 231.656 796.928 231.034 796.928 231.034L798.053 230.568C798.546 230.367 799.061 230.27 799.56 230.27C801.146 230.27 802.653 231.216 803.285 232.78L811.416 229.42C813.628 228.51 816.133 229.415 817.314 231.431L818.511 230.937C816.122 226.503 812.808 222.97 809.088 220.637C805.175 218.177 800.824 217.043 796.645 217.598C797.299 217.066 798.003 216.324 798.635 215.283C802.947 215.265 807.32 216.754 811.211 219.455C814.908 222.013 818.167 225.658 820.534 230.143C822.851 229.499 825.345 230.689 826.277 232.981L833.421 250.547C836.309 257.646 832.906 265.836 825.861 268.744Z" fill="#6518A8"/>
<path d="M816.504 229.192C819.398 230.421 823.461 234.701 829.968 232.106C834.624 230.285 839.546 229.01 841.94 228.417C842.888 228.235 843.431 228.099 843.431 228.099L840.854 220.54C840.854 220.54 840.765 220.586 840.538 220.632C838.869 220.996 830.372 222.818 826.398 221.907C821.931 220.86 814.431 226.278 814.431 226.278C814.431 226.278 813.617 228.008 816.504 229.192Z" fill="#5C2B03"/>
<path fill-rule="evenodd" clip-rule="evenodd" d="M734.898 274.917C734.898 272.182 729.987 263.742 729.987 263.742C729.987 263.742 725.071 272.182 725.071 274.917C725.071 277.651 727.271 279.868 729.987 279.868C732.698 279.868 734.898 277.651 734.898 274.917Z" fill="url(#paint5_linear_34_2633)"/>
<path d="M1119.27 739.183C1119.27 739.183 1124.97 744.496 1123.86 748.273C1122.74 752.049 1117.61 754.569 1116.92 759.184C1116.22 763.804 1113.45 766.318 1110.95 766.318C1108.45 766.318 1099.04 766.318 1099.04 766.318C1099.04 766.318 1097.2 763.072 1101.64 762.094C1106.08 761.111 1107.76 755.686 1107.48 750.652C1107.2 745.619 1107.89 738.903 1107.89 738.903L1117.33 736.663L1119.27 739.183Z" fill="#222956"/>
<path d="M1049.47 753.675C1049.47 753.675 1050.85 764.866 1048.36 766.123C1045.86 767.385 1016.02 766.966 1016.02 766.966C1016.02 766.966 1016.02 763.19 1021.15 762.346C1026.29 761.508 1035.31 758.429 1036.84 751.574C1038.36 744.725 1049.47 753.675 1049.47 753.675Z" fill="#222956"/>
<path d="M1022.48 582.788C1022.48 582.788 1024.16 603.996 1026.14 629.484C1028.84 664.111 1032.08 706.644 1032.4 714.701C1032.95 728.69 1035.18 751.071 1035.18 751.071C1035.18 751.071 1040.44 756.39 1051 754.15C1051 754.15 1060.4 722.198 1063.09 688.398C1063.12 687.844 1063.16 687.286 1063.21 686.727C1065.71 652.312 1069.59 579.85 1069.59 579.85L1022.48 582.788Z" fill="#28326F"/>
<path d="M1022.48 582.788C1022.48 582.788 1024.16 603.996 1026.14 629.484L1063.09 688.398C1063.12 687.844 1063.16 687.286 1063.21 686.727C1065.71 652.312 1069.59 579.85 1069.59 579.85L1022.48 582.788Z" fill="#222956"/>
<path d="M1030.18 585.308C1030.18 585.308 1060.57 662.106 1080.56 698.197C1100.54 734.288 1106.79 744.356 1106.79 744.356C1106.79 744.356 1118.24 739.741 1119.27 736.596C1119.27 736.596 1111.63 666.921 1098.25 649.932C1090.69 640.339 1081.8 611.533 1081.39 601.465C1080.97 591.392 1078.68 571.458 1078.68 571.458L1030.18 585.308Z" fill="#28326F"/>
<path d="M970.532 574.676C970.532 574.676 959.807 579.866 958.36 581.196C956.919 582.531 953.355 589.068 953.627 589.56C953.904 590.051 954.436 590.208 955.406 589.526C956.382 588.85 959.109 586.017 959.208 586.543C959.308 587.068 951.925 595.828 953.234 597.677C954.536 599.532 961.941 598.985 966.165 595.957C970.388 592.923 974.606 581.788 975.244 581.185C980.631 576.028 970.532 574.676 970.532 574.676Z" fill="#FFB2AF"/>
<path d="M970.05 580.235C967.068 577.626 966.991 576.967 966.991 576.967C966.991 576.967 986.008 543.82 987.66 540.629C989.306 537.439 999.499 487.654 999.499 487.654L1034.74 477.358C1034.74 477.358 1009.92 542.049 1005.58 550.043C998.418 563.256 975.033 582.704 975.033 582.704C975.033 582.704 972.39 582.291 970.05 580.235Z" fill="#0058BD"/>
<path d="M1016.79 464.402C1016.79 464.402 1004.39 486.397 992.266 489.269C992.266 489.269 992.77 481.883 995.719 476.827C994.51 475.391 993.452 474.067 992.532 472.888C989.483 468.949 988.031 466.536 988.031 466.536L994.937 447.825C996.279 450.278 997.758 452.373 999.299 454.161C1007.24 463.362 1016.79 464.402 1016.79 464.402Z" fill="#FFB2AF"/>
<path d="M999.299 454.161C999.299 454.161 1000.78 465.178 992.532 472.888C989.483 468.949 988.031 466.536 988.031 466.536L992.144 455.39C996.556 454.032 999.299 454.161 999.299 454.161Z" fill="#FF938F"/>
<path d="M984.761 468.162C984.761 468.162 1003.29 460.876 998.618 449.317C993.94 437.758 993.18 429.031 981.153 433.193C969.125 437.35 968.626 442.702 969.258 446.943C969.884 451.183 979.822 469.754 984.761 468.162Z" fill="#FFB2AF"/>
<path d="M1080.48 577.263C1073 588.09 1017.12 602.566 1017.78 595.068C1018.04 592.197 1018.38 587.141 1017.78 580.285C1017.64 578.676 1017.44 576.972 1017.19 575.173C1015.76 565.318 1012.39 552.658 1004.86 537.987C1004.3 536.892 1003.72 535.78 1003.11 534.663C1000.01 528.986 997.371 522.986 995.364 517.114C991.49 505.84 989.921 495.046 991.883 487.99L991.911 487.895C1003.59 482.447 1008.12 461.335 1008.12 461.335C1008.12 461.335 1047.97 468.547 1070.3 522.092C1070.3 522.092 1072.44 527.97 1074.89 535.948C1077.86 545.624 1081.29 558.385 1081.89 567.486C1082.18 571.81 1081.82 575.307 1080.48 577.263Z" fill="#469AFA"/>
<path d="M1001.28 427.841C1001.41 427.584 1001.78 427.31 1002.7 427.025C1002.7 427.025 1001.84 426.735 1000.83 426.953C1000.32 425.673 999.05 423.5 996.683 423.483C996.683 423.483 998.041 423.835 998.54 425.21C995.292 423.131 989.267 422.528 974.229 427.578C954.408 434.232 964.313 445.831 967.317 446.764C970.316 447.691 975.848 441.725 980.825 440.909C985.797 440.093 988.485 447.077 990.386 447.658C992.282 448.239 991.201 446.646 993.186 445.054C995.175 443.462 996.312 447.211 996.273 449.837C996.229 452.468 1000.1 454.96 1000.1 454.96C1000.1 454.96 1000.1 454.96 1002.37 450.764C1004.64 446.563 1004.02 431.322 1001.85 428.578C1001.66 428.338 1001.47 428.092 1001.28 427.841Z" fill="#242E6C"/>
<path d="M1081.89 567.486C1033.8 552.865 1026.15 495.074 1026.15 495.074C1026.15 495.074 1053.52 516.164 1074.89 535.948C1077.86 545.624 1081.29 558.385 1081.89 567.486Z" fill="#0058BD"/>
<path d="M1095.07 569.385C1095.07 569.385 1093.99 578.553 1094.25 580.051C1094.51 581.548 1096.24 586.001 1096.67 586.023C1097.1 586.045 1098.41 586.101 1098.38 585.185C1098.34 584.269 1097.75 583.408 1098.13 583.559C1098.51 583.716 1098.62 587.174 1100.36 587.085C1102.09 586.995 1107.19 585.057 1106.99 581.034C1106.78 577.017 1101.34 569.653 1101.21 568.983C1100.11 563.323 1095.07 569.385 1095.07 569.385Z" fill="#FFB2AF"/>
<path d="M1097.95 570.933C1094.14 572.693 1092.72 570.894 1092.72 570.894C1092.72 570.894 1070.5 533.489 1068.16 530.484C1065.81 527.478 1024.79 509.728 1024.79 509.728C1024.79 509.728 1008.1 503.298 1007.44 493.09C1006.86 484.218 1011.86 478.771 1017.33 475.481C1023.85 471.564 1032.1 472.14 1038.09 476.833C1051.55 487.369 1078.23 508.561 1082.52 514.304C1092.08 527.092 1102.67 567.178 1102.67 567.178C1102.67 567.178 1100.95 569.547 1097.95 570.933Z" fill="#0C70E3"/>
<path d="M1002.43 596.297L992.421 606.371L992.282 606.281L977.273 596.789C977.273 596.789 985.038 599.314 986.091 599.024C987.083 598.744 997.931 594.984 1000.49 595.297C1000.65 595.32 1000.77 595.353 1000.86 595.403C1002.43 596.297 1002.43 596.297 1002.43 596.297Z" fill="#313B75"/>
<path d="M991.972 609.103C991.567 609.013 990.376 608.734 988.757 608.315C984.096 607.108 975.876 604.801 972.633 602.912C969.723 601.214 954.342 592.197 943.75 585.867C947.974 583.593 952.142 583.269 955.639 583.71C968.011 591.029 984.173 600.639 986.147 602.041C989.4 604.348 993.834 607.136 993.834 607.136C993.834 607.136 993.818 607.264 993.773 607.455C993.624 608.075 993.164 609.36 991.972 609.103Z" fill="#FFA09C"/>
<path d="M991.972 609.103C991.567 609.013 990.375 608.734 988.757 608.315C984.095 607.108 975.875 604.801 972.633 602.912C969.723 601.214 954.342 592.197 943.75 585.867C938.429 582.688 934.31 580.185 933.59 579.626C931.428 577.95 927.265 573.765 928.291 572.972C928.939 572.475 929.981 572.609 930.846 572.749C931.345 572.827 931.783 572.905 932.06 572.86L932.093 572.855C932.265 572.827 932.559 572.782 932.958 572.76C934.388 572.676 937.22 572.871 941.255 575.218C941.255 575.218 947.657 578.989 955.639 583.71C968.01 591.029 984.173 600.639 986.146 602.041C989.4 604.348 993.834 607.136 993.834 607.136C993.834 607.136 993.817 607.264 993.773 607.455C993.623 608.075 993.163 609.36 991.972 609.103Z" fill="#B1C9F6"/>
<path d="M991.972 609.103C991.567 609.019 990.376 608.734 988.757 608.315C988.968 606.449 987.676 604.968 987.676 604.968L993.773 607.455C993.624 608.075 993.164 609.36 991.972 609.103Z" fill="#313B75"/>
<path d="M978.965 600.622H978.968H978.969H978.971H978.972C979.004 600.623 979.036 600.634 979.067 600.65C979.162 600.711 979.195 600.834 979.139 600.929L979.029 601.113C978.996 601.173 978.931 601.212 978.86 601.213H978.857H978.856H978.854H978.852C978.821 601.212 978.789 601.201 978.758 601.185C978.663 601.129 978.63 601.001 978.686 600.906L978.796 600.722C978.829 600.662 978.899 600.623 978.965 600.622Z" fill="#7182B5"/>
<path d="M977.971 600.682C977.932 600.682 977.899 600.671 977.866 600.654C977.771 600.599 977.738 600.47 977.794 600.376L977.904 600.191C977.943 600.13 978.009 600.091 978.076 600.091C978.109 600.091 978.148 600.102 978.176 600.119C978.275 600.18 978.303 600.303 978.247 600.398L978.142 600.582C978.104 600.643 978.037 600.682 977.971 600.682Z" fill="#7182B5"/>
<path d="M977.078 600.152C977.04 600.152 977.006 600.14 976.973 600.124C976.879 600.068 976.846 599.94 976.907 599.845L977.012 599.661C977.05 599.599 977.117 599.56 977.183 599.56C977.222 599.56 977.255 599.571 977.288 599.588C977.383 599.649 977.416 599.772 977.361 599.867L977.25 600.051C977.211 600.113 977.145 600.152 977.078 600.152Z" fill="#7182B5"/>
<path d="M976.186 599.621C976.153 599.621 976.114 599.61 976.087 599.593C975.987 599.537 975.959 599.409 976.015 599.314L976.12 599.13C976.158 599.068 976.225 599.029 976.297 599.029C976.33 599.029 976.363 599.041 976.396 599.057C976.491 599.119 976.524 599.241 976.468 599.336L976.358 599.52C976.319 599.582 976.253 599.621 976.186 599.621Z" fill="#7182B5"/>
<path d="M975.293 599.09C975.26 599.09 975.227 599.079 975.194 599.062C975.1 599.006 975.067 598.878 975.122 598.783L975.233 598.599C975.266 598.538 975.332 598.499 975.404 598.499C975.437 598.499 975.476 598.51 975.504 598.527C975.598 598.582 975.631 598.711 975.576 598.806L975.465 598.99C975.432 599.051 975.365 599.09 975.293 599.09Z" fill="#7182B5"/>
<path d="M974.401 598.559C974.368 598.559 974.335 598.548 974.301 598.531C974.207 598.476 974.174 598.347 974.23 598.252L974.34 598.068C974.379 598.007 974.445 597.968 974.512 597.968C974.545 597.968 974.584 597.979 974.611 597.996C974.711 598.052 974.739 598.18 974.683 598.275L974.578 598.459C974.539 598.52 974.473 598.559 974.401 598.559Z" fill="#7182B5"/>
<path d="M973.514 598.029C973.475 598.029 973.442 598.017 973.409 598.001C973.315 597.939 973.287 597.816 973.343 597.722L973.448 597.537C973.486 597.476 973.553 597.437 973.619 597.437C973.658 597.437 973.691 597.448 973.724 597.465C973.818 597.521 973.852 597.649 973.791 597.744L973.686 597.928C973.647 597.989 973.58 598.029 973.514 598.029Z" fill="#7182B5"/>
<path d="M972.622 597.498C972.589 597.498 972.55 597.487 972.522 597.47C972.423 597.409 972.395 597.286 972.45 597.191L972.556 597.007C972.594 596.945 972.661 596.906 972.733 596.906C972.766 596.906 972.799 596.918 972.832 596.934C972.926 596.99 972.959 597.118 972.904 597.213L972.793 597.397C972.755 597.459 972.688 597.498 972.622 597.498Z" fill="#7182B5"/>
<path d="M971.73 596.967C971.697 596.967 971.663 596.956 971.63 596.939C971.536 596.878 971.503 596.755 971.558 596.66L971.669 596.476C971.702 596.415 971.774 596.376 971.841 596.376C971.874 596.376 971.907 596.387 971.94 596.404C972.034 596.459 972.067 596.588 972.012 596.683L971.901 596.867C971.868 596.928 971.802 596.967 971.73 596.967Z" fill="#7182B5"/>
<path d="M961.231 590.71C961.198 590.71 961.159 590.698 961.131 590.682C961.032 590.626 961.004 590.498 961.06 590.403L961.165 590.219C961.203 590.157 961.27 590.124 961.342 590.124C961.375 590.124 961.408 590.129 961.441 590.152C961.536 590.208 961.569 590.33 961.513 590.425L961.403 590.609C961.364 590.676 961.298 590.71 961.231 590.71Z" fill="#7182B5"/>
<path d="M960.339 590.179C960.306 590.179 960.272 590.168 960.239 590.151C960.145 590.095 960.112 589.967 960.167 589.872L960.278 589.688C960.311 589.627 960.378 589.593 960.449 589.593C960.483 589.593 960.516 589.599 960.549 589.621C960.643 589.677 960.677 589.8 960.621 589.894L960.51 590.079C960.477 590.14 960.411 590.179 960.339 590.179Z" fill="#7182B5"/>
<path d="M959.447 589.648C959.413 589.648 959.38 589.637 959.347 589.62C959.253 589.565 959.22 589.436 959.275 589.341L959.386 589.157C959.424 589.096 959.491 589.057 959.557 589.057C959.59 589.057 959.629 589.068 959.657 589.085C959.756 589.146 959.784 589.269 959.729 589.364L959.624 589.548C959.585 589.615 959.519 589.648 959.447 589.648Z" fill="#7182B5"/>
<path d="M957.668 588.587C957.634 588.587 957.595 588.576 957.568 588.559C957.468 588.503 957.44 588.375 957.496 588.28L957.601 588.096C957.64 588.034 957.706 587.995 957.778 587.995C957.811 587.995 957.845 588.006 957.878 588.023C957.972 588.085 958.005 588.207 957.95 588.302L957.839 588.486C957.8 588.548 957.734 588.587 957.668 588.587Z" fill="#7182B5"/>
<path d="M955.883 587.525C955.85 587.525 955.816 587.514 955.783 587.497C955.689 587.442 955.656 587.313 955.711 587.218L955.822 587.034C955.855 586.973 955.927 586.934 955.994 586.934C956.027 586.934 956.065 586.945 956.093 586.962C956.193 587.017 956.22 587.146 956.165 587.241L956.06 587.425C956.021 587.486 955.955 587.525 955.883 587.525Z" fill="#7182B5"/>
<path d="M954.995 586.994C954.957 586.994 954.923 586.983 954.89 586.966C954.796 586.911 954.763 586.782 954.824 586.687L954.929 586.503C954.968 586.442 955.034 586.403 955.1 586.403C955.139 586.403 955.172 586.414 955.206 586.431C955.3 586.487 955.328 586.615 955.272 586.71L955.167 586.894C955.128 586.955 955.062 586.994 954.995 586.994Z" fill="#7182B5"/>
<path d="M954.103 586.464C954.07 586.464 954.032 586.452 953.998 586.436C953.904 586.38 953.877 586.252 953.932 586.157L954.037 585.973C954.076 585.911 954.142 585.872 954.209 585.872C954.247 585.872 954.28 585.883 954.314 585.9C954.408 585.956 954.441 586.084 954.386 586.179L954.275 586.363C954.236 586.425 954.17 586.464 954.103 586.464Z" fill="#7182B5"/>
<path d="M950.655 584.408C950.617 584.408 950.584 584.396 950.55 584.38C950.456 584.324 950.429 584.196 950.484 584.101L950.589 583.917C950.628 583.855 950.694 583.822 950.761 583.822C950.8 583.822 950.833 583.827 950.866 583.85C950.96 583.906 950.993 584.028 950.932 584.123L950.827 584.307C950.788 584.374 950.722 584.408 950.655 584.408Z" fill="#7182B5"/>
<path d="M952.396 585.447C952.363 585.447 952.324 585.436 952.296 585.419C952.202 585.363 952.169 585.235 952.224 585.14L952.329 584.956C952.368 584.895 952.435 584.855 952.506 584.855C952.54 584.855 952.573 584.867 952.606 584.883C952.7 584.945 952.734 585.067 952.678 585.162L952.567 585.346C952.534 585.408 952.462 585.447 952.396 585.447Z" fill="#7182B5"/>
<path d="M949.763 583.877C949.73 583.877 949.691 583.866 949.664 583.849C949.564 583.793 949.536 583.67 949.592 583.57L949.697 583.386C949.736 583.324 949.802 583.291 949.874 583.291C949.907 583.291 949.941 583.297 949.974 583.319C950.068 583.375 950.101 583.497 950.046 583.592L949.935 583.776C949.896 583.843 949.83 583.877 949.763 583.877Z" fill="#7182B5"/>
<path d="M948.871 583.346C948.837 583.346 948.804 583.335 948.771 583.318C948.677 583.263 948.644 583.134 948.699 583.039L948.81 582.855C948.843 582.794 948.909 582.76 948.981 582.76C949.015 582.76 949.048 582.766 949.081 582.788C949.175 582.844 949.208 582.967 949.153 583.062L949.042 583.246C949.009 583.313 948.943 583.346 948.871 583.346Z" fill="#7182B5"/>
<path d="M947.979 582.815C947.946 582.815 947.912 582.804 947.879 582.787C947.785 582.732 947.752 582.603 947.807 582.508L947.918 582.324C947.957 582.263 948.023 582.23 948.09 582.23C948.123 582.23 948.161 582.235 948.189 582.257C948.289 582.313 948.316 582.436 948.261 582.531L948.156 582.715C948.117 582.782 948.051 582.815 947.979 582.815Z" fill="#7182B5"/>
<path d="M947.092 582.285C947.053 582.285 947.02 582.273 946.987 582.257C946.893 582.201 946.865 582.073 946.92 581.978L947.025 581.794C947.064 581.732 947.131 581.693 947.197 581.693C947.236 581.693 947.269 581.704 947.302 581.727C947.396 581.782 947.424 581.905 947.369 582L947.263 582.184C947.225 582.251 947.158 582.285 947.092 582.285Z" fill="#7182B5"/>
<path d="M946.199 581.754C946.166 581.754 946.127 581.743 946.1 581.726C946 581.67 945.972 581.542 946.028 581.447L946.133 581.263C946.172 581.201 946.238 581.168 946.31 581.168C946.343 581.168 946.376 581.174 946.41 581.196C946.504 581.252 946.537 581.374 946.481 581.469L946.371 581.653C946.332 581.715 946.266 581.754 946.199 581.754Z" fill="#7182B5"/>
<path d="M945.307 581.223C945.274 581.223 945.241 581.212 945.207 581.195C945.113 581.139 945.08 581.011 945.136 580.916L945.246 580.732C945.279 580.671 945.351 580.632 945.418 580.632C945.451 580.632 945.484 580.643 945.517 580.66C945.611 580.721 945.645 580.844 945.589 580.939L945.484 581.123C945.445 581.184 945.379 581.223 945.307 581.223Z" fill="#7182B5"/>
<path d="M944.415 580.692C944.382 580.692 944.348 580.681 944.315 580.665C944.221 580.609 944.188 580.48 944.243 580.386L944.354 580.201C944.393 580.14 944.459 580.101 944.525 580.101C944.559 580.101 944.597 580.112 944.625 580.129C944.725 580.19 944.752 580.313 944.697 580.408L944.592 580.592C944.553 580.653 944.487 580.692 944.415 580.692Z" fill="#7182B5"/>
<path d="M943.528 580.162C943.489 580.162 943.456 580.15 943.423 580.134C943.328 580.078 943.295 579.95 943.356 579.855L943.461 579.671C943.5 579.609 943.566 579.57 943.633 579.57C943.672 579.57 943.705 579.581 943.738 579.598C943.832 579.654 943.865 579.782 943.804 579.877L943.699 580.061C943.661 580.123 943.594 580.162 943.528 580.162Z" fill="#7182B5"/>
<path d="M942.652 579.642C942.619 579.642 942.586 579.631 942.552 579.614C942.458 579.558 942.425 579.43 942.48 579.335L942.591 579.151C942.624 579.09 942.691 579.051 942.763 579.051C942.796 579.051 942.829 579.062 942.862 579.079C942.956 579.134 942.989 579.263 942.934 579.358L942.824 579.542C942.79 579.603 942.724 579.642 942.652 579.642Z" fill="#7182B5"/>
<path d="M941.76 579.111C941.726 579.111 941.693 579.1 941.66 579.083C941.566 579.022 941.533 578.899 941.588 578.804L941.699 578.62C941.737 578.559 941.804 578.52 941.87 578.52C941.904 578.52 941.942 578.531 941.97 578.548C942.064 578.604 942.097 578.732 942.042 578.827L941.937 579.011C941.898 579.072 941.832 579.111 941.76 579.111Z" fill="#7182B5"/>
<path d="M940.873 578.581C940.834 578.581 940.801 578.569 940.768 578.553C940.674 578.491 940.641 578.368 940.701 578.274L940.807 578.09C940.846 578.028 940.912 577.989 940.978 577.989C941.011 577.989 941.05 578 941.084 578.017C941.177 578.073 941.205 578.201 941.15 578.296L941.045 578.48C941.006 578.542 940.939 578.581 940.873 578.581Z" fill="#7182B5"/>
<path d="M933.679 574.039C933.645 574.039 933.606 574.034 933.573 574.017L933.49 573.972L932.093 572.855C932.265 572.827 932.559 572.782 932.958 572.76L933.873 573.486C934 573.592 934.022 573.788 933.917 573.922C933.862 574 933.767 574.039 933.679 574.039Z" fill="#7182B5"/>
<path d="M956.537 588.945C956.471 588.945 956.41 588.928 956.349 588.889L956.077 588.727C955.894 588.621 955.839 588.386 955.944 588.208L956.609 587.068C956.681 586.95 956.809 586.883 956.936 586.883C957.003 586.883 957.069 586.9 957.125 586.934L957.402 587.101C957.579 587.207 957.635 587.437 957.529 587.621L956.864 588.761C956.792 588.878 956.665 588.945 956.537 588.945Z" fill="#7182B5"/>
<path d="M958.305 590.001C958.244 590.001 958.177 589.984 958.116 589.945L957.845 589.783C957.668 589.677 957.607 589.442 957.712 589.263L958.382 588.124C958.449 588.006 958.576 587.939 958.704 587.939C958.771 587.939 958.837 587.956 958.898 587.99L959.17 588.152C959.347 588.258 959.408 588.492 959.303 588.671L958.632 589.811C958.565 589.934 958.438 590.001 958.305 590.001Z" fill="#7182B5"/>
<path d="M969.114 595.403C969.075 595.403 969.042 595.397 969.009 595.375C968.914 595.319 968.881 595.196 968.942 595.101L969.047 594.917C969.086 594.85 969.152 594.817 969.219 594.817C969.258 594.817 969.291 594.822 969.324 594.845C969.418 594.901 969.451 595.023 969.39 595.124L969.285 595.308C969.246 595.369 969.18 595.403 969.114 595.403Z" fill="#7182B5"/>
<path d="M968.221 594.872C968.187 594.872 968.149 594.866 968.121 594.844C968.021 594.788 967.994 594.665 968.049 594.571L968.154 594.386C968.193 594.32 968.259 594.286 968.331 594.286C968.365 594.286 968.398 594.297 968.431 594.314C968.525 594.37 968.558 594.493 968.503 594.587L968.392 594.777C968.353 594.838 968.287 594.872 968.221 594.872Z" fill="#7182B5"/>
<path d="M967.328 594.341C967.295 594.341 967.262 594.336 967.229 594.313C967.135 594.257 967.102 594.135 967.157 594.04L967.268 593.856C967.301 593.789 967.367 593.755 967.439 593.755C967.472 593.755 967.506 593.761 967.539 593.783C967.633 593.839 967.666 593.962 967.611 594.057L967.5 594.241C967.467 594.308 967.4 594.341 967.328 594.341Z" fill="#7182B5"/>
<path d="M966.436 593.81C966.403 593.81 966.37 593.805 966.336 593.783C966.242 593.727 966.209 593.604 966.265 593.509L966.375 593.325C966.414 593.258 966.48 593.225 966.547 593.225C966.58 593.225 966.619 593.23 966.646 593.252C966.746 593.308 966.774 593.431 966.718 593.526L966.613 593.71C966.574 593.777 966.508 593.81 966.436 593.81Z" fill="#7182B5"/>
<path d="M965.549 593.28C965.511 593.28 965.477 593.274 965.444 593.252C965.35 593.196 965.317 593.073 965.372 592.978L965.483 592.794C965.522 592.727 965.588 592.694 965.654 592.694C965.693 592.694 965.726 592.699 965.76 592.722C965.854 592.778 965.881 592.9 965.826 592.995L965.721 593.179C965.682 593.246 965.616 593.28 965.549 593.28Z" fill="#7182B5"/>
<path d="M964.657 592.749C964.623 592.749 964.585 592.743 964.551 592.721C964.457 592.665 964.43 592.542 964.485 592.448L964.59 592.258C964.629 592.197 964.695 592.163 964.767 592.163C964.801 592.163 964.834 592.169 964.867 592.191C964.961 592.247 964.994 592.37 964.939 592.464L964.828 592.648C964.79 592.715 964.723 592.749 964.657 592.749Z" fill="#7182B5"/>
<path d="M963.764 592.218C963.731 592.218 963.698 592.207 963.665 592.19C963.571 592.134 963.537 592.012 963.593 591.917L963.703 591.733C963.737 591.666 963.803 591.632 963.875 591.632C963.908 591.632 963.941 591.638 963.975 591.66C964.069 591.716 964.102 591.839 964.046 591.934L963.936 592.118C963.903 592.185 963.831 592.218 963.764 592.218Z" fill="#7182B5"/>
<path d="M962.872 591.687C962.839 591.687 962.805 591.682 962.772 591.659C962.678 591.604 962.645 591.481 962.7 591.38L962.811 591.202C962.85 591.135 962.916 591.101 962.983 591.101C963.016 591.101 963.055 591.107 963.082 591.129C963.176 591.185 963.21 591.308 963.154 591.403L963.043 591.587C963.01 591.654 962.944 591.687 962.872 591.687Z" fill="#7182B5"/>
<path d="M961.985 591.157C961.946 591.157 961.913 591.146 961.88 591.129C961.786 591.073 961.753 590.95 961.808 590.85L961.919 590.666C961.958 590.604 962.024 590.571 962.09 590.571C962.129 590.571 962.162 590.576 962.195 590.599C962.289 590.654 962.317 590.777 962.262 590.872L962.157 591.056C962.118 591.123 962.052 591.157 961.985 591.157Z" fill="#7182B5"/>
<path d="M956.398 593.644C956.997 593.755 957.446 593.107 957.146 592.577C956.841 592.04 956.381 591.426 955.722 591.046C954.375 590.258 953.976 592.75 954.414 593.029C954.674 593.191 955.6 593.504 956.398 593.644Z" fill="#242E6C"/>
<path d="M956.265 590.683L954.608 593.51C954.608 593.51 952.956 593.174 950.706 591.906C949.326 591.13 948.494 590.409 948.056 589.967C947.779 589.688 947.657 589.521 947.657 589.521L949.398 586.559C949.564 586.537 949.769 586.565 950.008 586.632C951.981 587.196 956.033 590.42 956.033 590.42L956.265 590.683Z" fill="#242E6C"/>
<path d="M950.008 586.632L948.056 589.967C947.779 589.688 947.657 589.521 947.657 589.521L949.398 586.559C949.564 586.537 949.769 586.565 950.008 586.632Z" fill="#7F22BA"/>
<path d="M987.748 604.471C987.831 604.438 993.557 605.745 996.672 608.041L992.731 607.98L987.676 604.968C987.676 604.968 987.344 604.616 987.748 604.471Z" fill="#242E6C"/>
<path d="M976.058 592.968C976.058 592.968 972.511 595.426 971.896 595.761C971.281 596.096 970.294 596.001 970.294 596.001H970.288L964.191 594.968C964.191 594.968 957.695 591.141 956.293 590.275C956.171 590.196 956.082 590.141 956.049 590.113C955.639 589.817 955.5 589.548 955.644 589.47C955.783 589.386 966.47 593.672 967.65 594.152L967.683 594.163C968.836 594.627 969.063 594.387 969.063 594.387L974.956 592.755C975.044 592.716 975.155 592.705 975.271 592.722C975.632 592.755 976.058 592.968 976.058 592.968Z" fill="#313B75"/>
<path d="M975.271 592.722C973.664 593.219 969.208 594.588 968.82 594.638C968.404 594.694 958.682 591.141 956.293 590.275C956.171 590.196 956.082 590.141 956.049 590.113C955.639 589.817 955.5 589.548 955.644 589.47C955.783 589.386 966.47 593.672 967.65 594.152C968.831 594.633 969.063 594.387 969.063 594.387L974.956 592.755C975.044 592.716 975.155 592.705 975.271 592.722Z" fill="#7F22BA"/>
<path d="M976.058 592.968C976.058 592.968 972.511 595.426 971.896 595.761C971.281 596.096 970.294 596.001 970.294 596.001H970.288C969.136 595.387 968.243 594.677 967.683 594.163C968.836 594.627 969.064 594.387 969.064 594.387L974.956 592.755C975.044 592.716 975.155 592.705 975.271 592.722C975.632 592.755 976.058 592.968 976.058 592.968Z" fill="#313B75"/>
<path d="M992.559 606.432L977.273 596.789C977.273 596.789 985.166 599.387 986.23 599.096C987.227 598.822 998.202 595.13 1000.8 595.465C997.847 596.666 990.936 599.638 990.459 601.286C989.999 602.856 991.684 605.298 992.559 606.432Z" fill="#6615B2"/>
<path d="M865.463 602.326C865.524 599.091 868.019 593.56 863.091 588.308C859.605 584.542 856.528 580.308 855.06 578.235C854.528 577.397 848.569 582.336 848.696 582.531C849.678 583.995 854.173 591.453 854.821 595.61C855.536 600.298 863.501 605.432 863.501 605.432C863.501 605.432 865.447 605.549 865.463 602.326Z" fill="#FFA5A2"/>
<path d="M902.872 602.968C895.04 603.382 889.686 591.13 886.382 590.968C885.839 590.945 884.813 591.096 883.494 591.292C886.742 596.661 889.225 602.979 890.6 609.924C895.3 633.562 885.401 655.496 868.495 658.904C852.05 662.223 835.034 646.792 829.796 624.187C829.652 623.556 829.513 622.919 829.386 622.271C828.017 615.377 827.889 608.633 828.815 602.443L828.82 602.387C828.116 602.577 827.568 602.745 827.24 602.896C824.253 604.331 823.998 617.712 816.604 620.372C809.215 623.031 804.238 608.756 813.034 597.638C818.4 590.861 827.906 587.588 834.507 586.068C835.882 583.811 837.456 581.783 839.219 580.034C839.28 579.967 839.346 579.9 839.412 579.833C834.563 577.19 830.871 572.475 829.707 566.597C829.308 564.609 829.236 562.625 829.441 560.709L829.391 560.698C826.054 559.681 823.372 556.893 822.634 553.211C821.581 547.887 825.007 542.708 830.289 541.641C834.108 540.87 837.861 542.467 840.039 545.423C841.508 544.697 843.093 544.144 844.772 543.803C846.269 543.507 847.754 543.384 849.207 543.44C850.132 539.926 852.953 537.071 856.723 536.305C862.005 535.244 867.143 538.691 868.202 544.021C868.894 547.507 867.658 550.943 865.236 553.189C866.228 554.949 866.971 556.899 867.387 558.994C868.49 564.541 867.121 570.011 864.05 574.24C866.805 575.196 869.482 576.631 872.021 578.475C878.644 577.196 889.469 576.162 897.49 580.604C909.856 587.453 910.709 602.555 902.872 602.968Z" fill="#F9795A"/>
<path d="M829.796 624.187C829.652 623.556 829.513 622.919 829.386 622.271C828.016 615.376 827.889 608.633 828.815 602.443C829.785 601.303 831.076 600.454 832.545 601.158C835.776 602.7 835.266 618.326 840.205 621.93C843.869 624.601 834.712 624.634 829.796 624.187Z" fill="#F24B46"/>
<path d="M848.58 577.553C846.729 578.246 842.766 579.486 839.219 580.034C839.28 579.967 839.346 579.9 839.413 579.833C834.563 577.19 830.871 572.475 829.707 566.597C829.308 564.608 829.236 562.625 829.441 560.709L829.391 560.698C829.585 560.62 829.835 560.737 830.156 561.201C831.392 562.96 838.049 577.207 848.58 575.576C848.58 575.576 851.335 576.52 848.58 577.553Z" fill="#F24B46"/>
<path d="M853.574 544.674C853.574 544.674 856.046 540.043 859.71 541.244C863.369 542.445 863.884 547.769 861.495 549.228C861.495 549.228 857.948 545.915 853.574 544.674Z" fill="#F24B46"/>
<path d="M836.375 547.384C836.375 547.384 831.093 544.931 828.71 547.77C826.326 550.602 831.093 554.211 831.093 554.211C831.093 554.211 833.393 549.406 836.375 547.384Z" fill="#F24B46"/>
<path d="M793.973 633.132C790.243 629.752 793.308 621.774 791.889 620.198C791.656 619.941 791.124 619.545 790.437 619.03C789.5 622.936 787.793 626.925 785.31 630.69C776.846 643.518 762.546 648.937 753.372 642.786C744.448 636.802 743.661 622.081 751.421 609.477C751.637 609.125 751.859 608.773 752.092 608.421C754.558 604.678 757.524 601.571 760.716 599.197L760.744 599.175C760.34 598.934 760.013 598.761 759.802 598.683C757.807 597.973 751.698 603.907 747.159 601.745C742.63 599.588 746.771 590.867 755.728 589.839C761.193 589.213 766.958 592.062 770.621 594.375C772.257 593.984 773.875 593.783 775.455 593.794C775.516 593.794 775.571 593.789 775.632 593.794C774.623 590.386 775.067 586.576 777.173 583.386C777.883 582.308 778.736 581.38 779.689 580.604L779.673 580.576C778.62 578.598 778.653 576.117 779.972 574.117C781.879 571.229 785.748 570.441 788.613 572.369C790.686 573.754 791.667 576.185 791.329 578.514C792.321 578.855 793.28 579.324 794.195 579.939C795.004 580.481 795.73 581.101 796.368 581.788C798.357 580.62 800.913 580.609 802.958 581.984C805.824 583.906 806.6 587.805 804.698 590.694C803.446 592.588 801.351 593.577 799.25 593.493C798.906 594.739 798.368 595.957 797.62 597.096C795.63 600.108 792.565 601.957 789.284 602.471C790.099 604.158 790.67 606.024 790.991 608.013C794.555 610.449 799.915 614.907 801.556 620.567C804.078 629.294 797.703 636.506 793.973 633.132Z" fill="#C0D3F8"/>
<path d="M751.421 609.477C751.637 609.125 751.859 608.773 752.092 608.421C754.558 604.678 757.523 601.571 760.716 599.197C761.664 599.119 762.628 599.325 762.978 600.309C763.748 602.482 756.52 609.315 757.136 613.192C757.601 616.064 753.444 611.913 751.421 609.477Z" fill="#B1C9F6"/>
<path d="M780.803 596.934C779.65 596.398 777.306 595.158 775.454 593.794C775.515 593.794 775.571 593.789 775.632 593.794C774.623 590.386 775.067 586.576 777.173 583.386C777.882 582.308 778.736 581.38 779.689 580.604L779.673 580.576C779.795 580.626 779.856 580.794 779.795 581.151C779.562 582.509 776.192 591.984 781.684 596.04C781.684 596.04 782.511 597.716 780.803 596.934Z" fill="#B1C9F6"/>
<path d="M797.786 584.336C797.786 584.336 800.979 583.364 802.099 585.576C803.213 587.783 801.062 590.42 799.327 589.995C799.327 589.995 799.205 586.884 797.786 584.336Z" fill="#B1C9F6"/>
<path d="M788.79 577.732C788.79 577.732 787.505 574.224 785.154 574.419C782.81 574.615 783.347 578.419 783.347 578.419C783.347 578.419 786.54 577.291 788.79 577.732Z" fill="#B1C9F6"/>
<path d="M715.083 631.188C715.083 631.188 707.079 620.796 707.029 612.31C706.974 603.823 707.217 601.007 708.625 601.387C710.028 601.773 716.352 606.499 718.619 611.214C720.891 615.924 724.882 628.255 724.965 629.931C725.049 631.607 715.083 631.188 715.083 631.188Z" fill="#F24B46"/>
<path d="M715.521 627.869C715.521 627.869 710.405 620.69 710.216 614.952C710.022 609.214 710.117 607.315 710.987 607.6C711.862 607.885 715.831 611.203 717.316 614.432C718.802 617.662 721.485 626.075 721.568 627.21C721.651 628.344 715.521 627.869 715.521 627.869Z" fill="#FDA079"/>
<path d="M727.992 626.852C727.992 626.852 724.156 612.768 725.669 608.935C727.188 605.102 735.042 607.661 735.935 610.365C736.827 613.069 736.278 624.478 736.278 624.478L727.992 626.852Z" fill="#F24B46"/>
<path d="M729.012 610.661C729.012 610.661 728.457 621.819 730.392 626.165L734.117 625.098C734.117 625.098 734.693 612.639 734.194 611.795C733.701 610.952 729.012 610.661 729.012 610.661Z" fill="#FDA079"/>
<path d="M725.453 609.734C725.453 609.734 738.357 618.343 739.399 617.433C740.435 616.522 736.511 607.79 734.992 607.008C733.473 606.225 725.359 604.611 725.453 609.734Z" fill="#F24B46"/>
<path d="M701.725 620.858H877.597V767.033H701.725V620.858Z" fill="#0C70E3"/>
<path d="M789.661 620.858H965.533V767.033H789.661V620.858Z" fill="#469AFA"/>
<path d="M965.533 620.858V667.274L789.661 677.894V620.858H965.533Z" fill="#28326F"/>
<path d="M789.661 620.858L824.458 659.318H998.008L965.533 620.858H789.661Z" fill="#0058BD"/>
<path d="M701.83 729.959H729.699L727.243 722.059L729.699 716.41H701.83V729.959Z" fill="#E9E7FA"/>
<path d="M965.572 755.027H937.702L940.158 747.127L937.702 741.479H965.572V755.027Z" fill="#B1C9F6"/>
<path d="M789.661 637.384L752.591 674.749H701.83V620.858H789.661V637.384Z" fill="#28326F"/>
<path d="M701.724 620.858L662.182 659.318H750.174L789.66 620.858H701.724Z" fill="#0058BD"/>
<path d="M658.303 728.523L655.099 729.154C651.302 729.897 647.588 727.372 646.851 723.539L642.14 699.097C641.469 695.605 643.487 692.191 646.718 691.051C646.691 690.968 646.668 690.884 646.652 690.794L646.375 689.353C646.181 688.359 646.835 687.386 647.827 687.191L649.251 686.911C650.244 686.716 651.208 687.375 651.396 688.37L651.674 689.811C651.69 689.878 651.696 689.945 651.701 690.012V690.046C655.215 689.772 658.475 692.202 659.162 695.767L663.868 720.21C664.61 724.037 662.099 727.78 658.303 728.523Z" fill="#B1C9F6"/>
<path d="M659.427 697.158L662.665 713.958L645.643 717.287L642.411 700.488L659.427 697.158Z" fill="#242E6C"/>
<path d="M651.701 690.012L646.718 691.051C646.69 690.968 646.668 690.884 646.652 690.794L646.375 689.353C646.181 688.359 646.835 687.386 647.827 687.191L649.251 686.911C650.243 686.716 651.208 687.375 651.396 688.37L651.674 689.811C651.69 689.878 651.696 689.945 651.701 690.012Z" fill="#6615B2"/>
<path d="M744.598 683.844C744.598 683.844 742.486 686.833 740.557 686.878C738.623 686.917 735.68 685.492 735.68 685.492C735.68 685.492 733.906 681.503 735.109 679.945C735.109 679.945 736.317 679.408 737.581 680.352C737.797 680.514 738.019 680.721 738.235 680.984C738.54 681.353 738.883 681.565 739.249 681.677C740.629 682.101 742.265 681.107 742.88 682.062C743.234 682.621 743.622 683.04 743.944 683.336C744.321 683.677 744.598 683.844 744.598 683.844Z" fill="#DFDCF7"/>
<path d="M717.106 705.427C717.106 705.427 724.561 687.224 737.974 686.878C737.974 686.878 750.362 688.263 751.05 705.427H717.106Z" fill="#DFDCF7"/>
<path d="M734.3 687.431C734.3 687.431 739.676 688.638 741.339 687.928C741.339 687.928 741.588 685.666 739.321 685.978C737.775 686.196 736.766 685.448 736.168 685.14C735.331 684.71 734.078 686.487 734.3 687.431Z" fill="#E9E7FA"/>
<path d="M738.977 684.017C738.634 684.274 737.581 680.352 737.581 680.352C737.797 680.514 738.019 680.721 738.235 680.984C738.54 681.353 738.883 681.565 739.249 681.677C739.249 681.788 739.315 683.766 738.977 684.017Z" fill="#B1C9F6"/>
<path d="M743.944 683.336C743.867 683.381 741.383 684.883 741.045 684.883C740.702 684.883 742.88 682.062 742.88 682.062C743.235 682.621 743.623 683.04 743.944 683.336Z" fill="#B1C9F6"/>
<path d="M724.389 700.342C724.251 700.225 729.66 692.308 731.151 692.252C732.642 692.191 735.996 693.984 738.418 694.213C740.846 694.448 743.196 693.755 743.65 695.197C744.11 696.644 745.374 701.767 744.598 702.583C743.822 703.404 727.366 702.907 724.389 700.342Z" fill="#7F22BA"/>
<path d="M661.578 712.65C661.373 713.053 661.074 713.382 660.725 713.622C660.525 713.751 660.315 713.857 660.087 713.93C659.467 714.136 658.763 714.103 658.136 713.779L624.719 696.666C623.461 696.024 622.956 694.465 623.594 693.197C623.915 692.565 624.458 692.124 625.085 691.917C625.705 691.711 626.41 691.75 627.036 692.068L660.453 709.181C661.711 709.823 662.216 711.382 661.578 712.65Z" fill="#7F22BA"/>
<path d="M635.799 702.342L633.693 695.476L628.311 692.722L631.553 700.169L635.799 702.342Z" fill="#ECEBFC"/>
<path d="M643.963 706.521L639.718 704.348L636.475 696.901L641.857 699.655L643.963 706.521Z" fill="#ECEBFC"/>
<path d="M652.117 710.695L647.871 708.522L644.623 701.074L650.011 703.834L652.117 710.695Z" fill="#ECEBFC"/>
<path d="M660.725 713.623C660.525 713.751 660.315 713.857 660.087 713.93C659.466 714.136 658.762 714.103 658.136 713.779L656.174 712.773L652.931 705.326L658.314 708.086L660.725 713.623Z" fill="#ECEBFC"/>
<path d="M623.594 693.197C623.594 693.197 622.923 689.537 619.969 688.448C619.969 688.448 620.318 688.873 618.893 689.331C617.475 689.783 617.89 690.772 617.38 691.219C617.38 691.219 619.431 693.962 623.594 693.197Z" fill="#ECEBFC"/>
<path d="M623.023 693.683L622.945 693.644C622.718 693.526 622.629 693.247 622.74 693.018L623.156 692.191C623.272 691.962 623.549 691.873 623.777 691.99L623.854 692.029C624.082 692.146 624.176 692.426 624.059 692.655L623.644 693.476C623.527 693.705 623.25 693.8 623.023 693.683Z" fill="#6615B2"/>
<path d="M661.44 712.578C661.44 712.578 664.771 710.969 667.381 712.728C667.381 712.728 666.838 712.695 667.309 714.12C667.781 715.544 666.75 715.79 666.689 716.466C666.689 716.466 663.285 716.416 661.44 712.578Z" fill="#ECEBFC"/>
<path d="M661.362 713.315L661.49 713.382C661.706 713.488 661.966 713.404 662.077 713.186L662.515 712.315C662.626 712.097 662.537 711.834 662.327 711.728L662.199 711.661C661.983 711.55 661.722 711.639 661.612 711.851L661.174 712.729C661.063 712.946 661.152 713.209 661.362 713.315Z" fill="#313B75"/>
<path d="M704.834 712.913C704.446 713.142 704.019 713.254 703.598 713.259C703.36 713.259 703.121 713.231 702.894 713.17C702.262 713.002 701.691 712.583 701.342 711.974L682.569 679.268C681.865 678.039 682.28 676.453 683.5 675.743C684.109 675.391 684.808 675.319 685.44 675.486C686.077 675.659 686.643 676.073 686.997 676.687L705.771 709.388C706.475 710.617 706.053 712.203 704.834 712.913Z" fill="#E9E7FA"/>
<path d="M688.793 690.113L690.739 683.202L687.712 677.933L686.41 685.962L688.793 690.113Z" fill="#F9795A"/>
<path d="M693.377 698.102L690.994 693.945L692.296 685.923L695.323 691.185L693.377 698.102Z" fill="#F9795A"/>
<path d="M697.956 706.08L695.572 701.923L696.88 693.901L699.901 699.169L697.956 706.08Z" fill="#F9795A"/>
<path d="M703.598 713.259C703.359 713.259 703.121 713.231 702.894 713.17C702.262 713.002 701.691 712.583 701.342 711.974L700.239 710.052L701.541 702.03L704.568 707.292L703.598 713.259Z" fill="#F9795A"/>
<path d="M683.5 675.743C683.5 675.743 684.913 672.302 683.028 669.771C683.028 669.771 683.089 670.313 681.654 669.916C680.218 669.519 680.03 670.575 679.365 670.67C679.365 670.67 679.597 674.095 683.5 675.743Z" fill="#E9E7FA"/>
<path d="M682.763 675.833L682.713 675.76C682.591 675.536 682.663 675.252 682.885 675.123L683.678 674.659C683.899 674.531 684.182 674.609 684.309 674.827L684.354 674.905C684.481 675.129 684.404 675.413 684.187 675.542L683.389 676.006C683.173 676.134 682.885 676.056 682.763 675.833Z" fill="#FF8783"/>
<path d="M704.756 712.779C704.756 712.779 708.42 713.259 709.662 716.17C709.662 716.17 709.224 715.84 708.847 717.293C708.476 718.751 707.472 718.388 707.057 718.919C707.057 718.919 704.23 717.008 704.756 712.779Z" fill="#E9E7FA"/>
<path d="M704.308 713.377L704.357 713.455C704.479 713.678 704.768 713.751 704.984 713.628L705.782 713.164C705.998 713.036 706.076 712.745 705.948 712.527L705.904 712.449C705.776 712.231 705.494 712.153 705.272 712.281L704.479 712.745C704.258 712.874 704.185 713.159 704.308 713.377Z" fill="#FF8783"/>
<path d="M644.085 722.087C643.686 721.874 643.365 721.573 643.138 721.209C643.01 721.008 642.91 720.796 642.838 720.567C642.644 719.936 642.689 719.232 643.021 718.6L660.531 685.196C661.191 683.939 662.742 683.459 663.99 684.124C664.61 684.453 665.043 685.012 665.237 685.643C665.431 686.275 665.386 686.978 665.059 687.604L647.544 721.014C646.885 722.265 645.333 722.751 644.085 722.087Z" fill="#F24B46"/>
<path d="M654.722 696.275L661.567 694.264L664.389 688.884L656.95 692.029L654.722 696.275Z" fill="#6615B2"/>
<path d="M650.448 704.432L652.671 700.192L660.109 697.041L657.288 702.421L650.448 704.432Z" fill="#6615B2"/>
<path d="M646.175 712.583L648.398 708.337L655.842 705.186L653.015 710.572L646.175 712.583Z" fill="#6B6F8E"/>
<path d="M643.138 721.209C643.01 721.008 642.91 720.796 642.838 720.567C642.644 719.936 642.689 719.232 643.021 718.6L644.047 716.639L651.485 713.494L648.664 718.874L643.138 721.209Z" fill="#6B6F8E"/>
<path d="M663.989 684.123C663.989 684.123 667.631 683.498 668.762 680.542C668.762 680.542 668.335 680.883 667.908 679.447C667.476 678.012 666.489 678.408 666.057 677.894C666.057 677.894 663.302 679.911 663.989 684.123Z" fill="#6615B2"/>
<path d="M663.518 683.537L663.562 683.459C663.679 683.23 663.962 683.146 664.183 683.263L664.998 683.699C665.22 683.816 665.308 684.101 665.186 684.325L665.148 684.403C665.031 684.632 664.749 684.716 664.527 684.599L663.712 684.163C663.485 684.045 663.402 683.76 663.518 683.537Z" fill="#6615B2"/>
<path d="M644.157 721.947C644.157 721.947 645.704 725.332 643.913 727.936C643.913 727.936 643.958 727.389 642.533 727.841C641.114 728.294 640.887 727.249 640.216 727.176C640.216 727.176 640.322 723.746 644.157 721.947Z" fill="#313B75"/>
<path d="M643.415 721.885L643.376 721.964C643.254 722.193 643.343 722.472 643.564 722.595L644.379 723.025C644.601 723.142 644.883 723.059 645 722.83L645.044 722.751C645.161 722.528 645.072 722.243 644.85 722.126L644.036 721.69C643.814 721.572 643.531 721.662 643.415 721.885Z" fill="#313B75"/>
<path d="M679.077 691.722C679.077 691.722 680.607 693.895 682.009 693.923C683.411 693.957 685.545 692.917 685.545 692.917C685.545 692.917 686.837 690.023 685.961 688.895C685.961 688.895 685.085 688.504 684.171 689.191C684.01 689.308 683.849 689.459 683.694 689.649C683.472 689.917 683.223 690.068 682.957 690.152C681.959 690.459 680.767 689.733 680.324 690.431C680.064 690.839 679.781 691.141 679.548 691.353C679.276 691.604 679.077 691.722 679.077 691.722Z" fill="#ECEBFC"/>
<path d="M699.025 707.387C699.025 707.387 693.616 694.174 683.882 693.923C683.882 693.923 674.892 694.934 674.393 707.387H699.025Z" fill="#ECEBFC"/>
<path d="M686.549 694.331C686.549 694.331 682.647 695.202 681.444 694.688C681.444 694.688 681.261 693.046 682.902 693.275C684.027 693.431 684.764 692.889 685.191 692.666C685.8 692.353 686.709 693.638 686.549 694.331Z" fill="#6615B2"/>
<path d="M683.151 691.85C683.4 692.04 684.17 689.191 684.17 689.191C684.01 689.308 683.849 689.459 683.694 689.649C683.472 689.917 683.223 690.068 682.957 690.152C682.957 690.236 682.912 691.666 683.151 691.85Z" fill="#6615B2"/>
<path d="M679.548 691.353C679.603 691.387 681.41 692.476 681.654 692.476C681.903 692.476 680.324 690.431 680.324 690.431C680.063 690.839 679.78 691.141 679.548 691.353Z" fill="#6615B2"/>
<path d="M693.743 703.694C693.843 703.61 689.913 697.867 688.832 697.828C687.751 697.783 685.318 699.085 683.561 699.253C681.798 699.42 680.097 698.917 679.764 699.962C679.431 701.013 678.511 704.728 679.077 705.326C679.636 705.918 691.581 705.555 693.743 703.694Z" fill="#6615B2"/>
<path d="M717.854 692.431H717.86C716.247 692.448 715.437 689.995 715.437 689.995L699.751 694.783C700.455 696.515 699.319 697.851 699.319 697.851C699.319 697.851 696.609 699.678 697.451 702.488L700.921 714.047C701.536 716.092 703.703 717.26 705.732 716.639L722.277 711.594C724.311 710.974 725.47 708.79 724.855 706.739L721.385 695.186C720.897 693.566 719.445 692.504 717.854 692.431Z" fill="#313B75"/>
<path d="M698.183 694.269L699.125 697.409C699.468 698.543 703.764 698.236 708.725 696.722C713.68 695.208 717.427 693.063 717.083 691.929L716.141 688.794L698.183 694.269Z" fill="#6615B2"/>
<path d="M716.141 688.794C716.485 689.923 712.738 692.074 707.783 693.582C702.822 695.096 698.526 695.403 698.183 694.269C697.845 693.135 701.586 690.99 706.547 689.476C711.508 687.967 715.803 687.66 716.141 688.794Z" fill="#ECEBFC"/>
<path d="M675.768 698.705C674.648 698.158 674.931 696.175 674.931 696.175L662.393 694.012C662.282 695.459 661.035 695.99 661.035 695.99C661.035 695.99 658.519 696.309 658.142 698.555L656.573 707.795C656.296 709.432 657.393 711.002 659.018 711.282L672.248 713.561C673.872 713.84 675.424 712.729 675.701 711.092L677.27 701.856C677.492 700.56 676.849 699.315 675.768 698.705Z" fill="#B1C9F6"/>
<path d="M661.479 693.107L661.052 695.616C660.897 696.521 663.99 697.811 667.953 698.493C671.916 699.18 675.252 698.996 675.408 698.091L675.835 695.582L661.479 693.107Z" fill="#FF7D78"/>
<path d="M675.834 695.582C675.679 696.487 672.342 696.672 668.379 695.985C664.411 695.303 661.323 694.012 661.478 693.107C661.634 692.202 664.97 692.023 668.934 692.705C672.897 693.387 675.984 694.677 675.834 695.582Z" fill="#E9E7FA"/>
<path d="M635.81 702.46H713.503V767.033H635.81V702.46Z" fill="#F9795A"/>
<path d="M674.659 702.46H752.352V767.033H674.659V702.46Z" fill="#FD8857"/>
<path d="M674.659 702.46H752.552V724.952L674.659 734.746V702.46Z" fill="#F24B46"/>
<path d="M674.659 702.46L690.029 719.449H766.697L752.352 702.46H674.659Z" fill="#F9795A"/>
<path d="M635.854 750.652H648.165L647.084 747.161L648.165 744.669H635.854V750.652Z" fill="#F24B46"/>
<path d="M674.659 709.756L658.28 726.266H635.854V702.46H674.659V709.756Z" fill="#F24B46"/>
<path d="M635.81 702.46L618.345 719.449H657.216L674.659 702.46H635.81Z" fill="#F9795A"/>
<path fill-rule="evenodd" clip-rule="evenodd" d="M409.243 769.614C409.243 769.614 408.817 769.396 408.013 768.977C407.215 769.396 406.788 769.614 406.788 769.614V768.329C383.536 756.072 216.61 654.474 185.97 588.951L186.33 587.839L185.315 587.504L186.33 587.839C186.33 587.839 186.784 585.375 187.399 582.302L192.144 589.638C193.037 591.018 194.539 591.766 196.068 591.766C196.944 591.766 197.825 591.521 198.607 591.007L201.173 589.325C201.19 589.308 201.207 589.297 201.229 589.286L202.753 588.286C202.753 588.286 202.753 588.286 202.753 588.28L205.652 586.375C206.949 585.526 207.653 584.09 207.653 582.632C207.653 581.799 207.42 580.961 206.938 580.213L202.254 572.977L208.235 574.263L196.368 563.877L195.73 562.893C195.32 562.256 194.838 561.698 194.3 561.212C195.52 558.574 196.49 556.541 196.49 556.541L182.832 552.038L173.786 544.121C168.948 501.65 183.342 462.038 213.75 435.931C229.963 422.008 250.731 411.924 275.563 407.292C281.222 406.242 286.715 405.75 292.036 405.75C326.895 405.75 354.442 426.852 374.047 448.971C392.898 470.229 404.41 492.425 408.013 497.688C415.368 486.956 455.614 405.75 523.995 405.75C529.311 405.75 534.81 406.242 540.463 407.292C579.307 414.533 608.218 436.847 625.312 465.731C646.258 501.124 649.456 546.384 631.426 585.827C607.575 637.998 491.249 717.746 435.893 752.435C423.161 760.413 413.661 766.005 409.243 768.329V769.614ZM214.698 551.161C214.836 551.211 214.975 551.261 215.124 551.306C215.435 551.731 215.751 552.256 216.061 552.837C219.609 559.038 224.88 573.503 229.89 576.978C235.217 580.715 244.296 584.816 251.285 589.236C251.967 589.655 252.594 590.073 253.22 590.498C257.505 593.459 262.576 594.99 266.268 594.99C268.734 594.99 270.585 594.308 271.173 592.917C271.173 592.917 274.51 585.447 265.22 577.766C263.762 576.559 261.152 575.346 258.125 574.14C250.399 571.19 239.856 568.296 237.717 565.614C234.951 562.094 227.49 554.519 221.543 549.311C220.396 548.362 219.281 547.479 218.3 546.708L222.901 541.032C224.176 539.456 224.797 537.551 224.797 535.657C224.797 534.271 224.469 532.897 223.827 531.651C223.766 531.534 223.732 531.405 223.732 531.277C223.732 531.037 223.838 530.796 224.026 530.623C224.126 530.528 224.226 530.428 224.314 530.316L225.002 529.472L222.579 527.478L220.157 525.489L219.475 526.333C219.392 526.433 219.32 526.539 219.254 526.645C219.082 526.93 218.766 527.092 218.439 527.092C218.35 527.092 218.262 527.081 218.173 527.053C217.43 526.852 216.671 526.752 215.917 526.752C213.456 526.752 211.012 527.819 209.343 529.875L196.528 545.702C194.905 547.708 195.204 550.691 197.194 552.328L199.594 554.301C199.599 554.306 199.61 554.312 199.616 554.317L203.712 557.686C204.527 558.357 205.513 558.686 206.5 558.686C207.78 558.686 209.055 558.128 209.925 557.055L214.698 551.161Z" fill="url(#paint6_linear_34_2633)"/>
<path d="M299.192 592.917C297.784 596.387 288.444 595.443 281.244 590.498C274.094 585.604 263.812 581.079 257.97 576.978C253.586 573.978 249.046 562.619 245.599 555.625C244.712 553.831 243.875 552.306 243.199 551.306C238.97 550.049 239.236 545.63 235.317 544.205C230.672 542.579 232.085 539.948 232.085 539.948C232.085 539.948 235.422 538.529 239.496 538.948C240.954 539.16 243.875 543.417 245.599 546.099C247.217 547.311 249.146 548.943 251.236 550.837C256.873 555.887 263.236 562.407 265.797 565.614C268.768 569.352 288.029 573.452 293.244 577.766C302.534 585.448 299.192 592.917 299.192 592.917Z" fill="#FF9490"/>
<path d="M265.852 646.345L286.044 759.323L293.033 759.787C293.033 759.787 298.532 710.589 293.826 693.605C289.115 676.62 301.952 655.139 298.344 640.406C294.741 625.673 265.852 646.345 265.852 646.345Z" fill="#FF9490"/>
<path d="M289.082 583.928L271.45 581.04C270.613 578.151 270.369 574.184 270.358 570.676C270.347 566.324 270.691 562.675 270.691 562.675L284.919 561.296L291.238 560.681C287.762 567.352 289.082 583.928 289.082 583.928Z" fill="#FFB2AF"/>
<path d="M289.603 564.184C289.603 564.184 280.186 572.279 270.358 570.676C270.347 566.324 270.691 562.675 270.691 562.675L284.919 561.295L289.603 564.184Z" fill="#FF9490"/>
<path d="M279.293 674.173C275.724 684.185 272.52 694.376 274.127 702.734C274.598 705.209 274.892 707.762 275.036 710.371C275.164 712.757 275.175 715.192 275.075 717.628C274.293 737.328 266.85 757.402 265.697 760.396C265.603 760.653 265.547 760.782 265.547 760.782L259.361 760.122L256.695 641.574C256.695 641.574 284.958 630.065 286.538 645.155C287.352 652.96 283.118 663.463 279.293 674.173Z" fill="#FFB2AF"/>
<path d="M296.187 680.894C296.187 680.894 294.386 681.157 291.703 681.453C286.665 682.006 278.55 682.665 273.534 681.889C271.145 681.52 269.804 677.537 269.172 672.196C267.775 660.346 269.865 641.808 271.76 640.981C274.521 639.791 298.937 640.803 298.937 640.803C298.937 640.803 304.263 654.088 296.187 680.894Z" fill="#28326F"/>
<path d="M292.097 681.453C287.058 682.006 278.944 682.665 273.928 681.889C271.539 681.52 270.197 677.537 269.565 672.195L282.951 650.116L293 646.149C293 646.149 297.03 663.072 292.097 681.453Z" fill="#222956"/>
<path d="M256.595 641.183C256.595 641.183 251.341 664.614 252.128 683.146C252.128 683.146 264.078 685.526 276.294 683.146C276.294 683.146 296.514 653.49 294.807 643.965C293.1 634.434 261.717 638.138 256.595 641.183Z" fill="#28326F"/>
<path d="M266.201 559.82C266.201 559.82 282.635 572.955 290.595 562.513C298.549 552.071 306.031 546.73 295.871 537.903C285.717 529.076 280.618 531.467 277.12 534.299C273.623 537.132 262.127 556.139 266.201 559.82Z" fill="#FFB2AF"/>
<path d="M307.545 541.831C307.545 541.831 306.63 541.529 305.582 541.848V541.831C306.907 539.356 305.91 535.523 305.91 535.523C306.242 537.624 304.363 540.099 304.363 540.099C304.252 532.305 285.135 527.483 283.367 526.986C281.599 526.494 281.815 523.528 281.815 523.528C278.168 524.271 274.304 528.969 274.41 533.545C274.521 538.121 278.279 546.904 280.712 547.026C283.145 547.149 282.037 549.127 280.379 551.848C278.722 554.569 280.878 561.96 283.86 564.558C286.266 566.648 287.53 564.899 288.937 564.128C289.287 563.938 289.658 563.787 290.046 563.698C295.622 562.446 301.425 556.893 304.308 549.809C305.455 546.993 305.616 544.172 305.61 542.758C306.087 542.479 307.007 541.965 307.545 541.831Z" fill="#222956"/>
<path d="M293.987 767.581H290.079C288.771 767.402 287.807 767.061 286.466 766.905C284.431 766.67 283.495 767.413 283.306 767.581L283.273 767.62H266.689C266.273 767.089 266.672 765.854 267.066 764.955C267.332 764.335 267.903 763.871 268.618 763.687C270.375 763.234 273.845 762.826 277.015 760.267C278.805 758.832 285.64 754.977 285.64 754.977L285.678 754.971C285.828 754.971 286.543 755.167 289.653 757.513C291.26 758.72 294.004 755.803 294.004 755.803C294.004 755.803 294.514 756.183 294.902 756.887C295.206 757.446 295.434 758.211 295.256 759.161C295.007 760.491 295.805 762.966 296.442 764.637C296.831 765.653 297.158 766.374 297.158 766.374C297.158 766.374 297.34 767.206 293.987 767.581Z" fill="#F24B46"/>
<path d="M294.902 756.887C293.97 757.474 292.003 758.631 290.694 758.781C288.937 758.988 285.639 754.977 285.639 754.977L285.678 754.971C285.828 754.971 286.543 755.167 289.652 757.513C291.26 758.72 294.004 755.803 294.004 755.803C294.004 755.803 294.514 756.183 294.902 756.887Z" fill="#3E477E"/>
<path d="M293.987 767.581H290.079C288.771 767.402 287.807 767.061 286.466 766.905C284.431 766.67 283.495 767.413 283.306 767.581L283.273 767.62H266.689C266.273 767.089 266.672 765.854 267.066 764.955C267.57 764.553 267.709 766.687 267.986 767.028C268.269 767.363 281.516 767.151 282.281 766.653C283.046 766.156 285.34 765.29 288.538 765.972C291.327 766.564 295.428 765.044 296.442 764.637C296.831 765.653 297.158 766.374 297.158 766.374C297.158 766.374 297.34 767.206 293.987 767.581Z" fill="#3E477E"/>
<path d="M267.31 767.581H263.402C262.1 767.402 261.13 767.061 259.788 766.905C257.754 766.67 256.817 767.413 256.629 767.581L256.595 767.62H240.011C239.596 767.089 239.995 765.854 240.388 764.955C240.654 764.335 241.225 763.871 241.94 763.687C243.697 763.234 247.167 762.826 250.338 760.267C252.128 758.832 258.962 754.977 258.962 754.977L259.001 754.971C259.151 754.971 259.866 755.167 262.975 757.513C264.583 758.72 267.326 755.803 267.326 755.803C267.326 755.803 267.836 756.183 268.224 756.887C268.529 757.446 268.757 758.211 268.579 759.161C268.33 760.491 269.128 762.966 269.765 764.637C270.153 765.653 270.48 766.374 270.48 766.374C270.48 766.374 270.663 767.206 267.31 767.581Z" fill="#F24B46"/>
<path d="M268.224 756.887C267.293 757.474 265.325 758.631 264.017 758.781C262.26 758.988 258.962 754.977 258.962 754.977L259.001 754.971C259.151 754.971 259.866 755.167 262.975 757.513C264.583 758.72 267.326 755.803 267.326 755.803C267.326 755.803 267.836 756.183 268.224 756.887Z" fill="#3E477E"/>
<path d="M267.31 767.581H263.402C262.1 767.402 261.13 767.061 259.788 766.905C257.754 766.67 256.817 767.413 256.629 767.581L256.595 767.62H240.011C239.596 767.089 239.995 765.854 240.388 764.955C240.893 764.553 241.031 766.687 241.314 767.028C241.591 767.363 254.838 767.151 255.603 766.653C256.368 766.156 258.663 765.29 261.861 765.972C264.649 766.564 268.751 765.044 269.765 764.637C270.153 765.653 270.48 766.374 270.48 766.374C270.48 766.374 270.663 767.206 267.31 767.581Z" fill="#3E477E"/>
<path d="M302.357 646.149C302.357 646.149 286.554 650.781 267.326 647.485C263.812 646.881 257.643 645.116 253.281 642.641L259.073 596.191L260.27 574.598C260.27 574.598 266.905 572.547 270.12 572.352C270.12 572.352 283.583 573.972 288.804 572.581C288.804 572.581 296.282 574.14 298.427 581.235C302.889 596.001 304.38 614.326 302.357 646.149Z" fill="#0058BD"/>
<path d="M271.173 592.917C269.71 596.387 260.37 595.443 253.22 590.498C252.594 590.074 251.967 589.655 251.285 589.236C244.296 584.816 235.217 580.716 229.89 576.978C224.88 573.503 219.609 559.038 216.061 552.837C215.751 552.256 215.435 551.731 215.124 551.306C210.945 549.993 211.211 545.63 207.298 544.205C202.653 542.579 204.006 539.948 204.006 539.948C204.006 539.948 207.398 538.529 211.416 538.948C212.93 539.16 215.85 543.417 217.524 546.099C218.672 546.993 220.08 548.099 221.543 549.312C227.49 554.519 234.951 562.094 237.717 565.614C239.856 568.296 250.399 571.19 258.125 574.14C261.152 575.346 263.762 576.559 265.22 577.766C274.51 585.448 271.173 592.917 271.173 592.917Z" fill="#FFB2AF"/>
<path d="M271.173 592.917C269.599 600.119 251.369 591.375 250.687 590.956C251.685 580.123 251.552 574.184 254.578 572.307C260.509 571.369 269.449 571.827 271.229 572.475C285.784 577.76 271.173 592.917 271.173 592.917Z" fill="#0058BD"/>
<path d="M251.236 550.837C250.609 552.569 249.046 554.569 245.599 555.625C244.712 553.831 243.875 552.306 243.199 551.306C238.97 550.049 239.236 545.63 235.317 544.205C230.672 542.579 232.085 539.948 232.085 539.948C232.085 539.948 235.422 538.529 239.496 538.948C240.954 539.16 243.875 543.417 245.599 546.099C247.217 547.311 249.146 548.943 251.236 550.837Z" fill="#242E6C"/>
<path d="M241.552 546.49C239.973 547.719 235.755 552.027 235.755 552.027L226.027 539.35C226.027 539.35 231.004 536.188 232.662 534.903C234.169 533.741 238.604 529.551 238.604 529.551L248.331 542.222C248.331 542.222 243.132 545.255 241.552 546.49Z" fill="#469AFA"/>
<path d="M241.552 546.49C239.973 547.719 235.755 552.027 235.755 552.027L228.904 543.099C228.904 543.099 233.876 539.931 235.538 538.652C237.046 537.484 241.48 533.294 241.48 533.294L248.331 542.222C248.331 542.222 243.132 545.255 241.552 546.49Z" fill="#0058BD"/>
<path d="M248.331 542.222L238.604 529.545L239.607 528.763L249.334 541.44L248.331 542.222Z" fill="#6615B2"/>
<path d="M234.751 552.809L225.024 540.138L226.027 539.35L235.755 552.027L234.751 552.809Z" fill="#6615B2"/>
<path d="M222.901 541.032L209.925 557.055C208.39 558.949 205.591 559.234 203.712 557.686L197.194 552.328C195.204 550.691 194.905 547.708 196.528 545.702L209.343 529.875C211.527 527.182 215.03 526.187 218.173 527.053C218.583 527.171 219.032 527.014 219.254 526.646C219.32 526.539 219.392 526.433 219.476 526.333L220.157 525.489L225.002 529.472L224.315 530.316C224.226 530.428 224.126 530.528 224.026 530.623C223.738 530.886 223.644 531.305 223.827 531.651C225.351 534.596 225.102 538.311 222.901 541.032Z" fill="#DFDCF7"/>
<path fill-rule="evenodd" clip-rule="evenodd" d="M206.5 558.686C205.513 558.686 204.527 558.357 203.712 557.686L199.616 554.317C199.61 554.312 199.599 554.306 199.594 554.301L203.712 557.686C204.527 558.357 205.513 558.686 206.5 558.686C207.78 558.686 209.055 558.128 209.925 557.055L214.698 551.161L209.925 557.055C209.055 558.128 207.78 558.686 206.5 558.686ZM225.002 529.472L222.58 527.478L225.002 529.472Z" fill="url(#paint7_linear_34_2633)"/>
<path d="M206.5 558.686C205.513 558.686 204.527 558.357 203.712 557.686L199.594 554.301C197.626 552.658 197.332 549.692 198.95 547.697L211.766 531.869C213.434 529.808 215.873 528.741 218.334 528.741C219.093 528.741 219.852 528.841 220.59 529.048C220.678 529.07 220.772 529.081 220.861 529.081C220.922 529.081 220.989 529.076 221.05 529.065C221.305 529.014 221.532 528.869 221.676 528.634C221.742 528.528 221.814 528.428 221.892 528.327L222.579 527.478L225.002 529.472L224.314 530.316C224.226 530.428 224.126 530.528 224.026 530.623C223.838 530.797 223.732 531.037 223.732 531.277C223.732 531.405 223.766 531.534 223.827 531.651C224.469 532.897 224.797 534.272 224.797 535.657C224.797 537.551 224.176 539.456 222.901 541.032L218.3 546.708L214.698 551.161L209.925 557.055C209.055 558.128 207.78 558.686 206.5 558.686Z" fill="#E8C3C7"/>
<path d="M220.213 538.819L207.243 554.843C205.707 556.742 202.908 557.027 201.024 555.479L199.616 554.317C197.626 552.68 197.327 549.703 198.95 547.697L211.766 531.869C213.949 529.176 217.452 528.176 220.59 529.048C220.745 529.087 220.9 529.092 221.05 529.065C221.05 529.193 221.077 529.327 221.138 529.444C222.668 532.389 222.419 536.098 220.213 538.819Z" fill="#DFDCF7"/>
<path d="M214.177 551.809L200.619 540.657L208.235 531.249L221.787 542.4L214.177 551.809Z" fill="#469AFA"/>
<path d="M226.365 528.338L220.972 523.919L219.936 525.204L225.329 529.623L226.365 528.338Z" fill="#6615B2"/>
<path d="M221.543 549.312C220.601 550.731 218.932 551.993 216.061 552.837C215.751 552.256 215.435 551.731 215.125 551.306C210.951 549.993 211.211 545.63 207.293 544.205C202.653 542.579 204.006 539.948 204.006 539.948C204.006 539.948 207.398 538.529 211.416 538.948C212.93 539.16 215.851 543.417 217.524 546.099C218.672 546.993 220.08 548.099 221.543 549.312Z" fill="#242E6C"/>
<path d="M153.494 526.735L152.552 533.104C152.552 533.104 152.136 533.104 151.405 533.048C149.11 532.892 143.523 532.579 137.21 531.892C127.709 530.947 116.441 529.26 111.951 526.472C105.117 522.265 93.8928 509.382 86.5875 496.493C86.3825 496.174 86.2273 495.862 86.0665 495.543C82.2585 488.705 79.5981 481.922 79.3874 476.503C79.2323 473.19 79.5981 470.346 80.2743 467.877C81.1611 464.614 82.6245 462.038 84.1375 460.094C84.3483 459.776 84.5533 459.463 84.8692 459.2C87.3746 456.2 89.8245 454.937 89.8245 454.937C91.0772 454.412 92.4352 455.044 93.8431 456.569V456.619C94.9903 457.831 96.243 459.67 97.4457 461.988C97.4957 462.038 97.5512 462.089 97.5512 462.145C97.8117 462.614 98.0721 463.145 98.3824 463.72C98.4879 463.826 98.5376 463.983 98.5932 464.089C99.1642 465.301 99.7404 466.564 100.317 467.877C106.735 481.973 113.57 503.331 119.257 509.695C121.712 512.432 132.931 517.796 141.854 521.79C148.273 524.634 153.494 526.735 153.494 526.735Z" fill="#FFB2AF"/>
<path d="M68.6014 386.42C68.6014 386.42 66.6614 376.246 55.7808 375.698C44.9059 375.145 32.0854 383.889 33.1775 395.325C34.2693 406.762 21.992 411.438 19.8137 421.058C17.6299 430.679 27.9118 430.701 30.1178 438.104C32.3293 445.501 26.2101 452.194 39.4852 452.803C52.76 453.418 68.0082 451.099 71.0901 443.602C74.1662 436.104 75.8845 405.75 75.8845 405.75L68.6014 386.42Z" fill="#222956"/>
<path d="M87.4411 490.252C86.8091 493.778 85.7671 496.795 84.5144 499.655C83.4724 502.052 82.2807 504.326 81.0557 506.7C77.4695 513.667 69.4991 516.863 68.7286 530.495C68.4626 535.188 69.0501 541.121 70.9679 548.865C80.3962 587.057 5.91784 554.524 10.1305 544.63C18.5001 524.975 29.8295 513.851 30.2119 497.415L30.2008 497.292C30.162 496.493 30.1344 494.353 30.1177 491.532C30.0788 484.626 30.101 473.614 30.1676 468.044C30.1676 467.91 30.1731 467.782 30.1731 467.659C30.2065 465.273 30.1953 463.547 30.1234 463.089C36.2314 440.685 48.3646 441.048 52.4995 441.272C54.0348 441.356 55.6422 441.518 56.9614 441.68C59.6164 440.289 64.3776 433.506 67.1324 422.159L68.0635 422.601L83.7052 430.009C83.7052 430.009 82.0423 435.137 80.8174 440.048C79.8585 443.887 79.1713 447.596 79.7476 448.641C80.9836 449.144 81.7208 449.462 81.7208 449.462V449.479C81.9813 450.122 90.6449 472.369 87.4411 490.252Z" fill="#FFB2AF"/>
<path d="M85.1353 756.955L79.4098 759.96C79.4098 759.96 48.2926 716.69 44.6011 679.855C43.9471 673.279 44.1633 666.905 45.5822 661.022C45.5822 661.022 44.9613 657.385 43.9194 651.373C43.7086 650.172 43.487 648.887 43.2543 647.513C42.3674 642.428 41.2811 636.193 40.0782 629.294C38.8866 622.5 37.5839 615.058 36.2371 607.466C33.5877 592.526 30.7941 576.967 28.4385 564.413L30.2952 563.804L38.809 561.033L50.3989 557.267L54.556 543.965L57.2664 543.25L69.5214 539.998C69.5214 539.998 70.0591 541.054 70.885 544.3C71.988 548.596 73.6066 556.737 75.2083 571.363C75.419 573.363 75.6351 575.486 75.8567 577.738C78.1017 594.286 79.4098 617.695 75.8624 645.781C75.175 651.194 74.3049 656.781 73.235 662.53C72.4481 666.732 72.3317 672.475 72.6586 679.062C74.1719 709.175 85.1353 756.955 85.1353 756.955Z" fill="#28326F"/>
<path d="M75.2083 571.363C67.2101 590.554 49.8668 631.78 43.2542 647.513C42.3674 642.428 41.281 636.194 40.0782 629.294C38.8865 622.5 37.5838 615.058 36.237 607.466L33.2164 575.497L38.809 561.033L45.9425 542.607C45.9425 542.607 51.269 542.881 57.2664 543.25C62.227 543.557 67.6591 543.943 70.8849 544.3C71.988 548.596 73.6065 556.737 75.2083 571.363Z" fill="#222956"/>
<path d="M166.254 543.797C163.538 546.216 152.07 534.154 151.078 533.048C148.783 532.892 143.196 532.579 136.883 531.892C138.867 528.635 140.691 523.953 141.528 521.79C147.946 524.634 153.167 526.735 153.167 526.735C153.167 526.735 162.972 528.366 164.458 530.014C168.582 534.596 169.225 541.222 166.254 543.797Z" fill="#242E6C"/>
<path d="M163.228 534.886C161.271 534.886 122.782 532.914 122.782 532.914L149.531 561.664L208.235 574.263L163.228 534.886Z" fill="#28326F"/>
<path d="M189.849 571.681C188.574 575.609 186.33 587.839 186.33 587.839L155.279 577.598C155.279 577.598 160.112 566.43 161.47 562.318C162.701 558.58 165.439 546.3 165.439 546.3L196.49 556.541C196.49 556.541 191.13 567.748 189.849 571.681Z" fill="#FF9490"/>
<path d="M189.849 571.681C188.574 575.609 186.33 587.839 186.33 587.839L164.458 580.626C164.458 580.626 169.291 569.458 170.649 565.346C171.88 561.608 174.618 549.328 174.618 549.328L196.49 556.541C196.49 556.541 191.13 567.748 189.849 571.681Z" fill="#FF9C98"/>
<path d="M196.49 556.541L165.439 546.3L166.254 543.797L197.304 554.038L196.49 556.541Z" fill="#FF9C98"/>
<path d="M185.515 590.347L154.464 580.101L155.279 577.598L186.33 587.839L185.515 590.347Z" fill="#E3E0F8"/>
<path d="M195.73 562.893L206.938 580.213C208.268 582.263 207.686 585.04 205.652 586.375L198.607 591.007C196.456 592.42 193.552 591.806 192.144 589.638L181.075 572.525C179.191 569.614 179.307 565.944 181.081 563.195C181.313 562.832 181.302 562.357 181.025 562.027C180.942 561.932 180.865 561.832 180.798 561.726L180.205 560.809L185.437 557.368L186.031 558.284C186.108 558.407 186.175 558.53 186.236 558.653C186.391 559.01 186.762 559.228 187.145 559.161C190.393 558.586 193.823 559.949 195.73 562.893Z" fill="#D7E3FB"/>
<path d="M195.73 562.893L206.938 580.213C208.268 582.263 207.686 585.04 205.652 586.375L201.229 589.286C199.073 590.705 196.168 590.085 194.766 587.917L183.691 570.804C181.807 567.894 181.923 564.223 183.702 561.474C183.786 561.34 183.835 561.189 183.858 561.039C183.885 560.781 183.819 560.513 183.641 560.307C183.558 560.212 183.481 560.111 183.414 560.005L182.821 559.089L185.437 557.368L186.03 558.284C186.108 558.407 186.175 558.53 186.236 558.653C186.391 559.01 186.762 559.228 187.145 559.161C190.393 558.586 193.823 559.949 195.73 562.893Z" fill="#C0D3F8"/>
<path fill-rule="evenodd" clip-rule="evenodd" d="M202.753 588.286V588.285V588.28L201.229 589.286C201.206 589.297 201.19 589.308 201.173 589.325C201.19 589.308 201.206 589.297 201.229 589.286L202.753 588.286Z" fill="url(#paint8_linear_34_2633)"/>
<path d="M198.685 590.046C197.16 590.046 195.658 589.297 194.766 587.917L183.691 570.804C182.76 569.374 182.322 567.754 182.322 566.156C182.322 564.502 182.799 562.871 183.702 561.474C183.786 561.34 183.835 561.189 183.858 561.038C183.935 561.066 184.018 561.077 184.102 561.077C184.151 561.077 184.196 561.078 184.246 561.066C184.728 560.983 185.221 560.938 185.715 560.938C188.486 560.938 191.207 562.301 192.826 564.804L204.039 582.123C205.364 584.174 204.787 586.945 202.753 588.28L201.229 589.286C201.207 589.297 201.19 589.308 201.173 589.325C200.403 589.811 199.544 590.046 198.685 590.046Z" fill="#CFBBDE"/>
<path d="M203.268 574.542L188.613 584.179L182.034 574.011L196.689 564.374L203.268 574.542Z" fill="#FD8857"/>
<path d="M184.778 555.714L178.969 559.552L179.872 560.938L185.681 557.1L184.778 555.714Z" fill="#FD8857"/>
<path d="M157.097 555.563L161.26 575.81C161.753 578.207 160.207 580.581 157.829 581.073L149.592 582.794C147.076 583.319 144.593 581.676 144.072 579.14L139.964 559.133C139.261 555.731 140.707 552.356 143.351 550.451C143.7 550.2 143.867 549.747 143.723 549.34C143.678 549.222 143.645 549.105 143.617 548.976L143.401 547.909L149.52 546.63L149.742 547.703C149.77 547.842 149.786 547.982 149.792 548.122C149.814 548.513 150.08 548.848 150.457 548.926C153.688 549.585 156.393 552.122 157.097 555.563Z" fill="#D7E3FB"/>
<path d="M157.097 555.563L161.26 575.81C161.753 578.207 160.207 580.581 157.829 581.073L152.652 582.157C150.135 582.682 147.652 581.034 147.131 578.497L143.024 558.496C142.32 555.088 143.767 551.719 146.416 549.814C146.538 549.719 146.643 549.602 146.716 549.462C146.837 549.239 146.871 548.96 146.782 548.702C146.738 548.585 146.704 548.462 146.682 548.339L146.461 547.267L149.52 546.63L149.742 547.703C149.77 547.842 149.786 547.982 149.792 548.122C149.814 548.513 150.08 548.848 150.457 548.926C153.688 549.585 156.393 552.122 157.097 555.563Z" fill="#C0D3F8"/>
<path d="M152.591 582.168C152.613 582.163 152.63 582.163 152.652 582.157L154.47 581.777C154.459 581.777 154.448 581.783 154.437 581.783L152.652 582.157C152.63 582.163 152.613 582.163 152.591 582.168Z" fill="#FBD9E3"/>
<path d="M151.71 582.252C149.542 582.252 147.586 580.716 147.131 578.498L143.024 558.496C142.908 557.921 142.847 557.351 142.847 556.787C142.841 553.999 144.21 551.395 146.416 549.814C146.538 549.719 146.644 549.602 146.716 549.462C146.815 549.546 146.932 549.608 147.065 549.636C150.296 550.295 152.996 552.826 153.705 556.267L157.862 576.52C158.355 578.905 156.831 581.263 154.47 581.777L152.652 582.157C152.63 582.163 152.613 582.163 152.591 582.168C152.297 582.224 152.004 582.252 151.71 582.252Z" fill="#CFBBDE"/>
<path d="M159.896 569.184L142.764 572.76L140.319 560.871L157.452 557.295L159.896 569.184Z" fill="#FF9C98"/>
<path d="M149.503 544.848L142.708 546.278L143.041 547.904L149.842 546.468L149.503 544.848Z" fill="#FF9C98"/>
<path d="M228.377 689.169L221.748 731.674L219.819 743.926L216.011 768.492H164.452C164.452 768.492 157.668 764.284 148.85 758.759C133.817 749.239 113.049 735.987 110.959 733.618C109.601 732.093 107.257 720.628 104.962 707.684C101.725 689.224 98.5932 667.653 98.5932 667.653L117.483 632.098L101.204 592.806L122.704 532.914L149.42 561.664L208.185 574.235L228.377 689.169Z" fill="#469AFA"/>
<path d="M151.732 681.347L145.862 714.879L189.894 683.973L151.732 681.347Z" fill="#0069E0"/>
<path d="M221.671 731.674L215.928 768.492H164.369C164.369 768.492 157.585 764.284 148.766 758.759L144.488 746.082L194.062 723.416L200.009 723.098L221.671 731.674Z" fill="#0C70E3"/>
<path d="M228.377 689.169L221.748 731.674L219.819 743.926C216.477 742.244 193.203 730.149 194.145 723.416C195.137 716.209 228.377 689.169 228.377 689.169Z" fill="#0069E0"/>
<path d="M110.959 733.618C110.959 733.618 142.27 743.155 144.554 746.11C146.838 749.071 153.361 761.564 153.361 761.564L110.959 733.618Z" fill="#0C70E3"/>
<path d="M151.732 681.347C151.732 681.347 176.519 674.112 178.803 670.827C181.086 667.536 197.066 647.485 197.066 647.485C197.066 647.485 192.826 680.028 189.894 683.973C186.956 687.923 151.732 681.347 151.732 681.347Z" fill="#0C70E3"/>
<path d="M131.417 657.765L104.962 707.684C101.725 689.224 98.5932 667.653 98.5932 667.653L113.57 649.876L131.417 657.765Z" fill="#0058BD"/>
<path d="M131.417 657.765C131.417 657.765 117.067 652.088 98.5932 667.653L117.483 632.098L131.417 657.765Z" fill="#0069E0"/>
<path d="M101.204 592.806L144.881 604.309L163.144 632.361L101.204 592.806Z" fill="#0058BD"/>
<path d="M145.862 714.879L144.554 746.11L194.145 723.416L228.377 689.168L197.066 647.485L182.062 687.593L145.862 714.879Z" fill="#0058BD"/>
<path d="M97.8504 397.7C97.8504 397.7 93.6543 382.481 81.5047 381.012C69.3604 379.548 61.7225 386.878 60.0873 394.023C58.4522 401.175 59.6329 419.868 67.1323 422.159C74.6316 424.45 97.8504 397.7 97.8504 397.7Z" fill="#222956"/>
<path d="M62.9865 548.356L62.2328 541.853C49.6284 545.227 15.9395 532.417 15.9395 532.417C15.9395 532.417 3.72877 543.239 5.33061 569.178C6.11212 581.838 6.62218 603.326 6.62218 603.326C6.59435 621.751 7.95232 639.993 9.0388 651.563C9.57642 657.334 10.0475 661.441 10.2415 663.078L10.247 663.094C10.3079 663.597 10.1307 664.067 9.88125 664.502C7.68082 668.262 5.59663 672.089 4.36619 676.19C-4.24174 704.862 2.53704 748.92 2.53704 748.92L11.0175 762.251C11.0175 762.251 20.6398 708.298 28.4606 684.464C29.7854 680.419 31.0602 677.246 32.2242 675.346C35.6274 669.815 38.7812 660.776 41.6469 650.027C47.029 629.819 62.9865 548.356 62.9865 548.356Z" fill="#28326F"/>
<path d="M83.7054 430.009C83.7054 430.009 82.0425 435.137 80.8176 440.048C71.6776 437.478 68.9007 427.791 68.0637 422.601L83.7054 430.009Z" fill="#FF9490"/>
<path d="M85.6286 435.439C85.6286 435.439 63.7568 430.338 67.1214 416.656C70.4802 402.974 69.9259 393.102 84.0323 395.783C98.1387 398.459 99.5577 404.359 99.5355 409.197C99.5188 414.041 91.4042 436.411 85.6286 435.439Z" fill="#FFB2AF"/>
<path d="M100.766 401.432C98.4159 396.476 95.6499 396.739 93.9151 397.616C83.6388 388.034 73.562 395.862 73.562 395.862C69.6822 405.309 61.2739 409.17 61.2739 409.17C61.2739 409.17 64.6327 412.639 74.3713 412.561C77.3478 412.538 80.3353 411.164 83.0568 409.265C77.8078 414.594 71.6554 417.84 71.6554 417.84C83.844 415.488 92.0195 401.264 92.8565 399.75C93.8875 401.286 95.8662 404.56 96.0326 407.326C96.2542 411.08 94.9739 418.371 97.1077 418.645C97.1077 418.645 104.291 408.868 100.766 401.432Z" fill="#222956"/>
<path d="M94.3141 456.211C94.3141 456.211 99.5798 465.469 100.367 467.855C100.367 467.855 93.5382 467.592 90.7835 472.883C90.7835 472.883 91.0163 457.541 94.3141 456.211Z" fill="#F9795A"/>
<path d="M92.4905 483.794C92.3353 484.23 92.1469 484.66 91.9529 485.09C86.4655 497.007 81.4659 506.946 81.4659 506.946C81.3329 506.868 80.6733 551.094 74.0331 552.837C70.2861 553.815 59.5941 555.256 51.9396 555.77C48.2203 556.016 38.0328 556.591 28.6932 555.77C16.9148 554.725 10.2192 552.038 5.72393 547.937C0.39192 540.786 25.0794 517.203 28.4383 500.236C28.3939 499.348 28.5435 496.499 28.7875 492.789C29.2088 486.012 29.8959 476.341 30.1067 470.43C30.1455 469.542 30.1676 468.737 30.1731 468.039C30.1731 467.91 30.1787 467.782 30.1787 467.664C31.3648 466.771 32.5288 465.944 33.5986 465.162C37.0351 462.636 39.6015 460.48 39.7677 457.709C39.8287 456.625 39.7954 455.507 39.6789 454.384C39.6292 453.854 39.5626 453.328 39.4851 452.809C38.6369 447.256 36.3477 442.233 36.3477 442.233C42.1567 439.858 52.5049 441.272 52.5049 441.272C52.5049 441.272 52.4883 441.853 52.4828 442.797C52.4439 446.607 52.4827 456.384 53.6912 458.234C55.2099 460.536 82.9126 470.637 84.3758 467.508C85.8171 464.435 81.8706 450.021 81.7266 449.479L81.7208 449.462C90.9994 453.127 94.314 456.211 94.314 456.211C88.7214 459.871 96.8194 472.234 92.4905 483.794Z" fill="#F9795A"/>
<path d="M54.1236 526.696C46.846 523.299 35.8435 505.527 28.7877 492.789C29.2089 486.012 29.8961 476.341 30.1068 470.43L54.1236 526.696Z" fill="#F24B46"/>
<path d="M108.509 537.098L106.68 543.831C106.68 543.831 104.385 543.412 100.733 542.73C99.6352 542.518 99.009 542.361 99.009 542.361C96.0879 541.78 92.5905 540.993 88.7825 540.149H88.7271C82.2089 538.573 74.8978 536.68 68.7399 534.573C64.411 533.048 60.653 531.422 58.0977 529.791C57.8372 529.629 57.6267 529.472 57.3661 529.26C51.258 524.791 44.0079 511.639 38.371 497.543C37.5895 495.599 36.8579 493.649 36.1263 491.761C33.5157 484.71 31.4315 477.765 30.1788 471.771C29.3918 468.195 28.8708 464.932 28.7653 462.251C28.7156 461.301 28.6656 460.407 28.7156 459.563C28.8208 444.311 36.3369 442.205 36.3369 442.205C36.4921 442.155 36.6472 442.104 36.8579 442.048C38.1603 441.842 39.5184 442.736 40.9263 444.468C42.6999 446.624 44.579 450.149 46.5134 454.412C49.4843 461.195 52.616 469.983 55.537 478.715C57.1555 483.498 58.7242 488.286 60.2872 492.705C61.1741 495.387 62.0608 497.912 62.8979 500.225C64.5163 504.644 65.974 508.22 67.2821 510.483C68.1135 511.957 70.5191 514.008 73.7007 516.321C79.2324 520.371 87.3193 525.266 94.3641 529.26C97.2852 530.947 100.051 532.472 102.351 533.735C106.054 535.786 108.509 537.098 108.509 537.098Z" fill="#FFB2AF"/>
<path d="M46.4911 454.435C36.4476 451.641 28.6988 459.547 28.6988 459.547C28.8207 444.317 36.3423 442.233 36.3423 442.233C39.3687 440.97 42.8773 446.25 46.4911 454.435Z" fill="#F9795A"/>
<path d="M130.436 543.78C127.1 545.199 122.399 550.144 114.889 547.144C109.512 545.037 103.826 543.568 101.06 542.881C99.9624 542.674 99.336 542.512 99.336 542.512C96.415 541.937 92.9174 541.149 89.1096 540.305C92.2413 536.411 94.0148 531.467 94.6911 529.417C97.6123 531.098 100.378 532.623 102.678 533.886C110.239 536.797 114.418 536.411 119.007 535.361C124.179 534.154 132.837 540.412 132.837 540.412C132.837 540.412 133.779 542.412 130.436 543.78Z" fill="#242E6C"/>
<path d="M34.1085 765.871H0.35861C0.35861 765.871 -0.905115 760.441 1.31201 756.748C3.27412 753.485 2.43722 749.719 2.03812 745.261C3.56798 745.892 5.51884 747.512 7.66399 747.887C10.0309 748.3 12.3754 747.608 13.9329 746.691C15.385 748.362 19.4481 756.994 21.388 758.402C23.5939 759.999 33.4323 759.429 34.1085 765.871Z" fill="#1D2453"/>
<path d="M102.19 765.871H68.4351C68.4351 765.871 67.1767 760.441 69.3883 756.748C71.3505 753.485 70.519 749.719 70.1199 745.261C71.6498 745.892 73.5952 747.512 75.7459 747.887C78.107 748.3 81.1612 746.725 82.7243 745.814C83.4891 752.423 87.5243 756.994 89.4698 758.402C91.6758 759.999 101.509 759.429 102.19 765.871Z" fill="#1D2453"/>
<defs>
<linearGradient id="paint0_linear_34_2633" x1="778.37" y1="273.612" x2="929.614" y2="273.612" gradientUnits="userSpaceOnUse">
<stop stop-color="#9E56E9"/>
<stop offset="1" stop-color="#FFEFE9"/>
</linearGradient>
<linearGradient id="paint1_linear_34_2633" x1="758.394" y1="305.793" x2="992.064" y2="305.793" gradientUnits="userSpaceOnUse">
<stop stop-color="#994FE4"/>
<stop offset="1" stop-color="#FFEFE9"/>
</linearGradient>
<linearGradient id="paint2_linear_34_2633" x1="442.274" y1="111.879" x2="590.031" y2="111.879" gradientUnits="userSpaceOnUse">
<stop stop-color="#8B4DD8"/>
<stop offset="1" stop-color="#FFEFE9"/>
</linearGradient>
<linearGradient id="paint3_linear_34_2633" x1="588.631" y1="189.834" x2="807.121" y2="189.834" gradientUnits="userSpaceOnUse">
<stop stop-color="#9549E0"/>
<stop offset="1" stop-color="#FFEFE9"/>
</linearGradient>
<linearGradient id="paint4_linear_34_2633" x1="3.51145" y1="308.755" x2="325.107" y2="308.755" gradientUnits="userSpaceOnUse">
<stop stop-color="#984DE3"/>
<stop offset="1" stop-color="#FFEFE9"/>
</linearGradient>
<linearGradient id="paint5_linear_34_2633" x1="725.071" y1="271.805" x2="734.895" y2="271.805" gradientUnits="userSpaceOnUse">
<stop stop-color="#F9795A"/>
<stop offset="1" stop-color="#FFEFE9"/>
</linearGradient>
<linearGradient id="paint6_linear_34_2633" x1="369.04" y1="412.029" x2="445.877" y2="763.083" gradientUnits="userSpaceOnUse">
<stop stop-color="#A25BED"/>
<stop offset="1" stop-color="#6200AD"/>
</linearGradient>
<linearGradient id="paint7_linear_34_2633" x1="172.866" y1="587.682" x2="643.191" y2="587.682" gradientUnits="userSpaceOnUse">
<stop stop-color="#FA7E59"/>
<stop offset="1" stop-color="#F04F63"/>
</linearGradient>
<linearGradient id="paint8_linear_34_2633" x1="172.867" y1="587.682" x2="643.175" y2="587.682" gradientUnits="userSpaceOnUse">
<stop stop-color="#F77C6F"/>
<stop offset="1" stop-color="#ED4D79"/>
</linearGradient>
</defs>
</svg>
