<svg width="25" height="31" viewBox="0 0 25 31" fill="none" xmlns="http://www.w3.org/2000/svg">
<path d="M13.6268 0C7.34865 0 2.25352 5.23051 2.25352 11.6448C2.25352 18.0585 7.34913 23.2895 13.6268 23.2895C19.9049 23.2895 25 18.059 25 11.6448C25 5.23101 19.9049 0 13.6268 0ZM3.59542 11.6448C3.59542 6.01156 8.09919 1.39626 13.6268 1.39626C19.1542 1.39626 23.6581 5.98797 23.6581 11.6448C23.6581 17.3018 19.1542 21.8933 13.6268 21.8933C8.09939 21.8933 3.59542 17.278 3.59542 11.6448Z" fill="black"/>
<path d="M21.7474 11.645C21.7474 11.2664 21.4517 10.9349 21.065 10.9349H14.3092V5.13638C14.3092 4.75779 14.0135 4.42634 13.6268 4.42634C13.24 4.42634 12.9443 4.73401 12.9443 5.13638V11.645C12.9443 12.0236 13.24 12.355 13.6268 12.355H21.0879C21.4519 12.355 21.7476 12.0236 21.7476 11.645H21.7474Z" fill="black"/>
<path d="M0.740348 29.3486C0.701125 29.3698 0.66038 29.3856 0.61773 29.3961C0.57508 29.4072 0.530524 29.4128 0.484447 29.4128C0.346216 29.4128 0.236924 29.3728 0.15619 29.2923C0.0754619 29.2121 0.0350928 29.1033 0.0350928 28.9658C0.0350928 28.8279 0.075458 28.719 0.15619 28.6385C0.236919 28.5583 0.346211 28.5181 0.484447 28.5181C0.530524 28.5181 0.57508 28.5236 0.61773 28.5347C0.66038 28.5454 0.701125 28.5613 0.740348 28.5823V28.7606C0.700745 28.7326 0.661521 28.712 0.623062 28.6988C0.584982 28.6857 0.544615 28.6789 0.501965 28.6789C0.425804 28.6789 0.365825 28.7047 0.322224 28.7558C0.278432 28.8065 0.256723 28.8767 0.256723 28.9658C0.256723 29.0546 0.278429 29.1247 0.322224 29.1758C0.365827 29.2265 0.425804 29.2519 0.501965 29.2519C0.544615 29.2519 0.584979 29.2454 0.623062 29.2321C0.661524 29.219 0.700749 29.1984 0.740348 29.1703V29.3486Z" fill="black"/>
<path d="M1.37092 28.9253C1.35359 28.917 1.33627 28.9108 1.31913 28.9071C1.3018 28.9029 1.28448 28.9007 1.26734 28.9007C1.21593 28.9007 1.17633 28.918 1.14853 28.9522C1.12111 28.9861 1.1074 29.0347 1.1074 29.0981V29.396H0.908622V28.7494H1.1074V28.8556C1.1333 28.8128 1.16262 28.7819 1.19575 28.7629C1.22869 28.7434 1.26829 28.7335 1.31456 28.7335C1.32103 28.7335 1.32827 28.7339 1.33589 28.7343C1.34388 28.7349 1.35531 28.7363 1.37016 28.7383L1.37092 28.9253Z" fill="black"/>
<path d="M2.09033 29.0711V29.1298H1.62574C1.63069 29.1785 1.64745 29.215 1.67601 29.2391C1.70495 29.2635 1.74551 29.2756 1.79787 29.2756C1.83937 29.2756 1.88203 29.2692 1.92582 29.2566C1.96999 29.2435 2.01511 29.2237 2.06138 29.1971V29.3564C2.01416 29.375 1.96694 29.3889 1.91972 29.3984C1.87288 29.4079 1.82604 29.4127 1.77883 29.4127C1.66649 29.4127 1.57928 29.3831 1.51683 29.3239C1.45438 29.2643 1.42315 29.1805 1.42315 29.0727C1.42315 28.9677 1.45362 28.8849 1.51455 28.8247C1.57586 28.764 1.6604 28.7335 1.76816 28.7335C1.86565 28.7335 1.94353 28.7642 2.00198 28.8255C2.06081 28.8869 2.09033 28.9687 2.09033 29.0711V29.0711ZM1.88621 29.0022C1.88621 28.9626 1.87498 28.9309 1.8527 28.9071C1.83081 28.8829 1.80205 28.8706 1.76664 28.8706C1.72856 28.8706 1.69733 28.8821 1.67296 28.9047C1.64897 28.9275 1.63412 28.96 1.62803 29.0022L1.88621 29.0022Z" fill="black"/>
<path d="M2.51968 29.1052C2.47855 29.1052 2.44732 29.1127 2.426 29.1274C2.40505 29.1417 2.39477 29.163 2.39477 29.1916C2.39477 29.2181 2.40315 29.2387 2.4199 29.2534C2.43704 29.2683 2.46065 29.2756 2.49073 29.2756C2.52767 29.2756 2.55889 29.2617 2.58441 29.2336C2.61031 29.2056 2.62325 29.1706 2.62325 29.1282V29.1052L2.51968 29.1052ZM2.82356 29.0267V29.396H2.62325V29.3001C2.59622 29.3394 2.56613 29.3679 2.53262 29.3857C2.49949 29.4036 2.45913 29.4127 2.41152 29.4127C2.34698 29.4127 2.29462 29.3933 2.25463 29.354C2.21445 29.315 2.19446 29.2643 2.19446 29.2019C2.19446 29.1258 2.21959 29.0701 2.26986 29.0347C2.32013 28.9994 2.39876 28.9816 2.50596 28.9816H2.62325V28.9657C2.62325 28.933 2.61068 28.9091 2.58593 28.8936C2.56099 28.8784 2.52234 28.8706 2.47017 28.8706C2.42752 28.8706 2.38791 28.8752 2.35135 28.8841C2.3148 28.8932 2.28072 28.9063 2.2493 28.9237V28.766C2.29137 28.7555 2.33403 28.7476 2.37725 28.7422C2.42028 28.7365 2.46331 28.7335 2.50596 28.7335C2.61811 28.7335 2.69902 28.7565 2.74891 28.8025C2.79861 28.8484 2.82355 28.9233 2.82355 29.0267L2.82356 29.0267Z" fill="black"/>
<path d="M3.22538 28.5655V28.7494H3.43025V28.8968H3.22538V29.171C3.22538 29.2011 3.23109 29.2215 3.2429 29.232C3.25451 29.2427 3.27736 29.2478 3.31144 29.2478H3.4135V29.396H3.2429C3.16407 29.396 3.10828 29.3792 3.07534 29.3453C3.04278 29.311 3.0266 29.253 3.0266 29.171V28.8968H2.92835V28.7494H3.0266V28.5655H3.22538Z" fill="black"/>
<path d="M4.17266 29.0711V29.1298H3.70808C3.71303 29.1785 3.72978 29.215 3.75834 29.2391C3.78728 29.2635 3.82784 29.2756 3.8802 29.2756C3.92171 29.2756 3.96436 29.2692 4.00815 29.2566C4.05233 29.2435 4.09745 29.2237 4.14372 29.1971V29.3564C4.0965 29.375 4.04928 29.3889 4.00206 29.3984C3.95522 29.4079 3.90838 29.4127 3.86116 29.4127C3.74882 29.4127 3.66162 29.3831 3.59917 29.3239C3.53672 29.2643 3.50549 29.1805 3.50549 29.0727C3.50549 28.9677 3.53595 28.8849 3.59688 28.8247C3.65819 28.764 3.74273 28.7335 3.8505 28.7335C3.94798 28.7335 4.02586 28.7642 4.08431 28.8255C4.14315 28.8869 4.17266 28.9687 4.17266 29.0711V29.0711ZM3.96855 29.0022C3.96855 28.9626 3.95731 28.9309 3.93504 28.9071C3.91314 28.8829 3.88439 28.8706 3.84898 28.8706C3.8109 28.8706 3.77967 28.8821 3.7553 28.9047C3.73131 28.9275 3.71645 28.96 3.71036 29.0022L3.96855 29.0022Z" fill="black"/>
<path d="M4.74675 28.8436V28.4973H4.9463V29.396H4.74675V29.3024C4.71933 29.3405 4.68906 29.3686 4.65612 29.3864C4.62299 29.4039 4.58491 29.4126 4.54187 29.4126C4.46514 29.4126 4.40212 29.3809 4.35299 29.3175C4.30368 29.2541 4.27912 29.1725 4.27912 29.0726C4.27912 28.9734 4.30368 28.892 4.35299 28.8286C4.40212 28.7652 4.46514 28.7335 4.54187 28.7335C4.58452 28.7335 4.62222 28.7426 4.65535 28.7604C4.68886 28.7784 4.71933 28.8062 4.74675 28.8436L4.74675 28.8436ZM4.61575 29.2628C4.6584 29.2628 4.69077 29.2468 4.71324 29.2145C4.73552 29.1818 4.74675 29.1344 4.74675 29.0726C4.74675 29.0114 4.73552 28.9646 4.71324 28.9324C4.69077 28.8997 4.6584 28.8832 4.61575 28.8832C4.57348 28.8832 4.54131 28.8997 4.51903 28.9324C4.49656 28.9646 4.48552 29.0114 4.48552 29.0726C4.48552 29.1344 4.49656 29.1818 4.51903 29.2145C4.5413 29.2468 4.57348 29.2628 4.61575 29.2628Z" fill="black"/>
<path d="M5.86484 29.2628C5.90749 29.2628 5.93986 29.2468 5.96232 29.2145C5.9846 29.1818 5.99583 29.1344 5.99583 29.0726C5.99583 29.0114 5.9846 28.9647 5.96232 28.9324C5.93985 28.8997 5.90749 28.8832 5.86484 28.8832C5.82218 28.8832 5.78943 28.8997 5.76659 28.9324C5.74374 28.9653 5.73232 29.012 5.73232 29.0726C5.73232 29.134 5.74374 29.181 5.76659 29.2137C5.78944 29.2466 5.82218 29.2628 5.86484 29.2628V29.2628ZM5.73231 28.8436C5.75973 28.8062 5.79019 28.7784 5.82371 28.7604C5.85722 28.7426 5.89549 28.7335 5.93871 28.7335C6.01525 28.7335 6.07828 28.7652 6.12759 28.8286C6.17671 28.892 6.20147 28.9734 6.20147 29.0726C6.20147 29.1725 6.17671 29.2541 6.12759 29.3175C6.07828 29.3809 6.01525 29.4126 5.93871 29.4126C5.89549 29.4126 5.85722 29.4035 5.82371 29.3857C5.79019 29.3678 5.75973 29.3401 5.73231 29.3024V29.396H5.53353V28.4973H5.73231V28.8436Z" fill="black"/>
<path d="M6.2662 28.7494H6.46498L6.63254 29.1884L6.77419 28.7494H6.97297L6.71174 29.4571C6.68527 29.5294 6.65462 29.5799 6.61958 29.6084C6.58455 29.637 6.53828 29.6512 6.48097 29.6512H6.36596V29.5157H6.42841C6.46192 29.5157 6.4863 29.5102 6.50153 29.4991C6.51714 29.488 6.52933 29.4678 6.53809 29.4389L6.54342 29.4206L6.2662 28.7494Z" fill="black"/>
<path d="M8.07061 28.5609V28.7431C8.0253 28.7221 7.98093 28.7063 7.93733 28.6956C7.89411 28.6845 7.85317 28.6789 7.81471 28.6789C7.76387 28.6789 7.72636 28.6865 7.70199 28.7011C7.67762 28.716 7.66543 28.7388 7.66543 28.7693C7.66543 28.7927 7.67343 28.8109 7.68981 28.824C7.70599 28.8367 7.73588 28.8475 7.77968 28.8565L7.87031 28.8755C7.96266 28.8951 8.02816 28.9244 8.0668 28.9634C8.10584 29.0027 8.12545 29.0583 8.12545 29.1307C8.12545 29.2258 8.09822 29.2967 8.04395 29.343C7.9895 29.3896 7.90686 29.4128 7.79567 29.4128C7.74274 29.4128 7.68999 29.4074 7.63725 29.3969C7.58432 29.387 7.53158 29.3716 7.47884 29.351V29.1631C7.53158 29.1929 7.5826 29.2151 7.63192 29.2297C7.68161 29.2446 7.7294 29.2519 7.7751 29.2519C7.82175 29.2519 7.85736 29.244 7.88173 29.2281C7.90648 29.2119 7.91905 29.1885 7.91905 29.1584C7.91905 29.1315 7.91067 29.1106 7.89391 29.0958C7.87716 29.0811 7.84365 29.0679 7.79338 29.0562L7.71037 29.0371C7.62754 29.0187 7.5668 28.9894 7.52834 28.9492C7.49026 28.9086 7.47122 28.8539 7.47122 28.7851C7.47122 28.6996 7.49787 28.6338 7.55118 28.5878C7.6045 28.5415 7.68104 28.5181 7.78119 28.5181C7.82689 28.5181 7.87354 28.5218 7.92133 28.5292C7.9695 28.5361 8.0192 28.5466 8.07061 28.5609L8.07061 28.5609Z" fill="black"/>
<path d="M8.22259 28.7494H8.42137L8.58893 29.1884L8.73059 28.7494H8.92936L8.66813 29.4571C8.64166 29.5294 8.61101 29.5799 8.57598 29.6084C8.54094 29.637 8.49467 29.6512 8.43736 29.6512H8.32236V29.5157H8.38481C8.41832 29.5157 8.44269 29.5102 8.45792 29.4991C8.47353 29.488 8.48572 29.4678 8.49448 29.4389L8.49981 29.4206L8.22259 28.7494Z" fill="black"/>
<path d="M9.62207 28.8564C9.64739 28.8163 9.67729 28.7858 9.71194 28.7652C9.7464 28.7442 9.78449 28.7335 9.82619 28.7335C9.8972 28.7335 9.95147 28.7565 9.98917 28.8025C10.0267 28.848 10.0455 28.9146 10.0455 29.0022V29.396H9.84523V29.0584C9.84561 29.0537 9.84599 29.0487 9.84599 29.0434C9.84637 29.0376 9.84675 29.0297 9.84675 29.0196C9.84675 28.9742 9.84008 28.9412 9.82695 28.9206C9.81419 28.9 9.79344 28.8896 9.7645 28.8896C9.72642 28.8896 9.6969 28.9059 9.67615 28.938C9.65578 28.9703 9.6453 29.017 9.64492 29.0783V29.396H9.44538V29.0584C9.44538 28.9871 9.43929 28.9412 9.4271 28.9206C9.41529 28.8999 9.39435 28.8896 9.36388 28.8896C9.3258 28.8896 9.29629 28.9061 9.27554 28.9388C9.25459 28.9711 9.24431 29.0172 9.24431 29.0775V29.396H9.04477V28.7494H9.24431V28.8437C9.26868 28.8072 9.29648 28.7799 9.32809 28.7613C9.36008 28.7428 9.39511 28.7335 9.43319 28.7335C9.47622 28.7335 9.51431 28.7444 9.54744 28.766C9.58038 28.7872 9.60532 28.8173 9.62207 28.8564L9.62207 28.8564Z" fill="black"/>
<path d="M10.5619 29.2628C10.6045 29.2628 10.6369 29.2468 10.6594 29.2145C10.6817 29.1818 10.6929 29.1344 10.6929 29.0726C10.6929 29.0114 10.6817 28.9647 10.6594 28.9324C10.6369 28.8997 10.6045 28.8832 10.5619 28.8832C10.5192 28.8832 10.4865 28.8997 10.4636 28.9324C10.4408 28.9653 10.4294 29.012 10.4294 29.0726C10.4294 29.134 10.4408 29.181 10.4636 29.2137C10.4865 29.2466 10.5192 29.2628 10.5619 29.2628V29.2628ZM10.4294 28.8436C10.4568 28.8062 10.4872 28.7784 10.5208 28.7604C10.5543 28.7426 10.5925 28.7335 10.6358 28.7335C10.7123 28.7335 10.7753 28.7652 10.8246 28.8286C10.8738 28.892 10.8985 28.9734 10.8985 29.0726C10.8985 29.1725 10.8738 29.2541 10.8246 29.3175C10.7753 29.3809 10.7123 29.4126 10.6358 29.4126C10.5925 29.4126 10.5543 29.4035 10.5208 29.3857C10.4872 29.3678 10.4568 29.3401 10.4294 29.3024V29.396H10.2306V28.4973H10.4294V28.8436Z" fill="black"/>
<path d="M11.341 28.8809C11.2968 28.8809 11.2629 28.8976 11.2397 28.9309C11.2168 28.9637 11.2054 29.0109 11.2054 29.0727C11.2054 29.1351 11.2168 29.1829 11.2397 29.2161C11.2629 29.249 11.2968 29.2653 11.341 29.2653C11.384 29.2653 11.4171 29.249 11.44 29.2161C11.4632 29.1829 11.475 29.1351 11.475 29.0727C11.475 29.0109 11.4632 28.9637 11.44 28.9309C11.4171 28.8976 11.384 28.8809 11.341 28.8809ZM11.341 28.7335C11.448 28.7335 11.5315 28.7636 11.5915 28.8239C11.6519 28.8837 11.6822 28.9665 11.6822 29.0727C11.6822 29.1795 11.6519 29.2629 11.5915 29.3231C11.5315 29.3829 11.448 29.4127 11.341 29.4127C11.2338 29.4127 11.1498 29.3829 11.0889 29.3231C11.0283 29.2629 10.9982 29.1795 10.9982 29.0727C10.9982 28.9665 11.0283 28.8837 11.0889 28.8239C11.1498 28.7636 11.2338 28.7335 11.341 28.7335Z" fill="black"/>
<path d="M11.8259 28.4973H12.0247V29.396H11.8259V28.4973Z" fill="black"/>
<path d="M12.5122 28.8809C12.468 28.8809 12.4342 28.8976 12.4109 28.9309C12.3881 28.9637 12.3767 29.0109 12.3767 29.0727C12.3767 29.1351 12.3881 29.1829 12.4109 29.2161C12.4342 29.249 12.468 29.2653 12.5122 29.2653C12.5553 29.2653 12.5884 29.249 12.6112 29.2161C12.6345 29.1829 12.6463 29.1351 12.6463 29.0727C12.6463 29.0109 12.6345 28.9637 12.6112 28.9309C12.5884 28.8976 12.5553 28.8809 12.5122 28.8809ZM12.5122 28.7335C12.6192 28.7335 12.7028 28.7636 12.7628 28.8239C12.8231 28.8837 12.8534 28.9665 12.8534 29.0727C12.8534 29.1795 12.8231 29.2629 12.7628 29.3231C12.7028 29.3829 12.6192 29.4127 12.5122 29.4127C12.405 29.4127 12.3211 29.3829 12.2601 29.3231C12.1996 29.2629 12.1695 29.1795 12.1695 29.0727C12.1695 28.9665 12.1996 28.8837 12.2601 28.8239C12.3211 28.7636 12.405 28.7335 12.5122 28.7335Z" fill="black"/>
<path d="M13.6226 29.0022V29.396H13.423V29.0941C13.423 29.0386 13.4217 29.0004 13.4192 28.9792C13.4166 28.9582 13.4126 28.9425 13.407 28.9324C13.3988 28.9188 13.3882 28.9083 13.375 28.9007C13.3617 28.8934 13.3465 28.8896 13.3294 28.8896C13.2882 28.8896 13.2557 28.9063 13.2319 28.9396C13.2079 28.9729 13.1961 29.0188 13.1961 29.0775V29.396H12.9973V28.7494H13.1961V28.8437C13.226 28.8062 13.2578 28.7785 13.2913 28.7605C13.3252 28.7426 13.3625 28.7335 13.4032 28.7335C13.4752 28.7335 13.5298 28.7565 13.567 28.8025C13.6039 28.848 13.6226 28.9146 13.6226 29.0022L13.6226 29.0022Z" fill="black"/>
<path d="M0.483618 29.6807V29.8162H0.373185C0.345196 29.8162 0.325585 29.8215 0.314542 29.832C0.303308 29.8427 0.297787 29.8612 0.297787 29.8875V29.9327H0.467628V30.0801H0.297787V30.5793H0.0990072V30.0801H0V29.9327H0.0990072V29.8875C0.0990072 29.8168 0.117667 29.7647 0.155364 29.7314C0.193445 29.6977 0.25209 29.6807 0.331298 29.6807L0.483618 29.6807Z" fill="black"/>
<path d="M1.03112 30.1087C1.01379 30.1004 0.996465 30.0942 0.979329 30.0904C0.962002 30.0863 0.944675 30.0841 0.927539 30.0841C0.87613 30.0841 0.836526 30.1013 0.808728 30.1356C0.78131 30.1695 0.767601 30.218 0.767601 30.2814V30.5794H0.568821V29.9327H0.767601V30.0389C0.793495 29.9961 0.822817 29.9652 0.855948 29.9462C0.888887 29.9268 0.928492 29.9169 0.974759 29.9169C0.981233 29.9169 0.988468 29.9173 0.996084 29.9177C1.00408 29.9183 1.01551 29.9197 1.03036 29.9217L1.03112 30.1087Z" fill="black"/>
<path d="M1.42596 30.0643C1.38178 30.0643 1.34789 30.0809 1.32466 30.1142C1.30182 30.1471 1.29039 30.1943 1.29039 30.2561C1.29039 30.3185 1.30182 30.3662 1.32466 30.3995C1.34789 30.4324 1.38179 30.4486 1.42596 30.4486C1.46899 30.4486 1.50212 30.4324 1.52497 30.3995C1.54819 30.3662 1.56 30.3185 1.56 30.2561C1.56 30.1943 1.54819 30.1471 1.52497 30.1142C1.50212 30.0809 1.46899 30.0643 1.42596 30.0643ZM1.42596 29.9169C1.53296 29.9169 1.61655 29.947 1.67653 30.0072C1.73689 30.0671 1.76716 30.1499 1.76716 30.2561C1.76716 30.3629 1.73689 30.4463 1.67653 30.5065C1.61655 30.5663 1.53296 30.596 1.42596 30.596C1.31876 30.596 1.23479 30.5663 1.17386 30.5065C1.11331 30.4463 1.08323 30.3629 1.08323 30.2561C1.08323 30.1499 1.11331 30.0671 1.17386 30.0072C1.23479 29.947 1.31876 29.9169 1.42596 29.9169Z" fill="black"/>
<path d="M2.48747 30.0397C2.5128 29.9997 2.54269 29.9692 2.57735 29.9486C2.61181 29.9276 2.64989 29.9169 2.69159 29.9169C2.76261 29.9169 2.81688 29.9399 2.85458 29.9858C2.89209 30.0314 2.91094 30.098 2.91094 30.1855V30.5794H2.71063V30.2418C2.71101 30.2371 2.71139 30.2321 2.71139 30.2268C2.71177 30.221 2.71215 30.2131 2.71215 30.203C2.71215 30.1576 2.70549 30.1245 2.69235 30.1039C2.67959 30.0833 2.65884 30.073 2.6299 30.073C2.59182 30.073 2.56231 30.0893 2.54155 30.1214C2.52118 30.1537 2.51071 30.2004 2.51033 30.2616V30.5794H2.31078V30.2418C2.31078 30.1705 2.30469 30.1245 2.29251 30.1039C2.2807 30.0833 2.25976 30.073 2.22929 30.073C2.19121 30.073 2.1617 30.0895 2.14094 30.1222C2.12 30.1544 2.10972 30.2006 2.10972 30.2608V30.5794H1.91017V29.9328H2.10972V30.0271C2.13409 29.9906 2.16189 29.9633 2.1935 29.9446C2.22548 29.9262 2.26052 29.9169 2.2986 29.9169C2.34163 29.9169 2.37971 29.9278 2.41284 29.9494C2.44578 29.9706 2.47072 30.0007 2.48748 30.0397L2.48747 30.0397Z" fill="black"/>
<path d="M3.7091 29.7489V29.9327H3.91397V30.0801H3.7091V30.3543C3.7091 30.3844 3.71481 30.4049 3.72661 30.4154C3.73823 30.4261 3.76108 30.4312 3.79516 30.4312H3.89722V30.5794H3.72661C3.64779 30.5794 3.592 30.5626 3.55906 30.5287C3.5265 30.4944 3.51032 30.4364 3.51032 30.3543V30.0801H3.41207V29.9327H3.51032V29.7489H3.7091Z" fill="black"/>
<path d="M4.66108 30.1855V30.5793H4.46153V30.279C4.46153 30.2225 4.4602 30.1837 4.45772 30.1625C4.45506 30.1415 4.45106 30.1258 4.44554 30.1157C4.43735 30.1021 4.42669 30.0916 4.41355 30.084C4.40022 30.0767 4.38499 30.0729 4.36785 30.0729C4.32673 30.0729 4.29417 30.0896 4.27037 30.1229C4.24638 30.1562 4.23457 30.2021 4.23457 30.2608V30.5793H4.03579V29.6807H4.23457V30.027C4.26447 29.9895 4.29626 29.9618 4.32977 29.9438C4.36366 29.9259 4.40098 29.9168 4.44173 29.9168C4.5137 29.9168 4.56835 29.9398 4.60548 29.9858C4.64242 30.0313 4.66107 30.0979 4.66107 30.1855L4.66108 30.1855Z" fill="black"/>
<path d="M5.46608 30.2545V30.3131H5.0015C5.00645 30.3619 5.0232 30.3983 5.05176 30.4225C5.0807 30.4469 5.12126 30.4589 5.17362 30.4589C5.21513 30.4589 5.25778 30.4526 5.30157 30.4399C5.34575 30.4269 5.39087 30.407 5.43714 30.3805V30.5398C5.38992 30.5584 5.3427 30.5723 5.29548 30.5818C5.24864 30.5913 5.2018 30.596 5.15458 30.596C5.04224 30.596 4.95504 30.5665 4.89259 30.5073C4.83014 30.4477 4.79891 30.3639 4.79891 30.2561C4.79891 30.1511 4.82937 30.0683 4.8903 30.008C4.95161 29.9474 5.03615 29.9169 5.14392 29.9169C5.2414 29.9169 5.31928 29.9476 5.37773 30.0088C5.43657 30.0702 5.46608 30.1521 5.46608 30.2545V30.2545ZM5.26197 30.1856C5.26197 30.1459 5.25073 30.1142 5.22846 30.0905C5.20656 30.0663 5.17781 30.054 5.1424 30.054C5.10432 30.054 5.07309 30.0655 5.04872 30.0881C5.02473 30.1109 5.00987 30.1434 5.00378 30.1856L5.26197 30.1856Z" fill="black"/>
<path d="M6.0219 29.7171H6.26104L6.56188 30.3083V29.7171H6.76447V30.5793H6.52608L6.22448 29.9873V30.5793H6.0219V29.7171Z" fill="black"/>
<path d="M7.2609 30.0643C7.21672 30.0643 7.18283 30.0809 7.1596 30.1142C7.13676 30.1471 7.12533 30.1943 7.12533 30.2561C7.12533 30.3185 7.13676 30.3662 7.1596 30.3995C7.18283 30.4324 7.21673 30.4486 7.2609 30.4486C7.30393 30.4486 7.33706 30.4324 7.3599 30.3995C7.38313 30.3662 7.39494 30.3185 7.39494 30.2561C7.39494 30.1943 7.38313 30.1471 7.3599 30.1142C7.33706 30.0809 7.30393 30.0643 7.2609 30.0643ZM7.2609 29.9169C7.3679 29.9169 7.45149 29.947 7.51147 30.0072C7.57182 30.0671 7.6021 30.1499 7.6021 30.2561C7.6021 30.3629 7.57183 30.4463 7.51147 30.5065C7.45149 30.5663 7.3679 30.596 7.2609 30.596C7.1537 30.596 7.06973 30.5663 7.0088 30.5065C6.94825 30.4463 6.91817 30.3629 6.91817 30.2561C6.91817 30.1499 6.94825 30.0671 7.0088 30.0072C7.06973 29.947 7.1537 29.9169 7.2609 29.9169Z" fill="black"/>
<path d="M7.73985 30.3274V29.9328H7.9394V29.997C7.9394 30.0324 7.93902 30.0766 7.93864 30.1293V30.2355C7.93864 30.2874 7.93978 30.3249 7.94245 30.3481C7.94492 30.3708 7.9493 30.3873 7.95539 30.3972C7.96339 30.4111 7.97405 30.4216 7.98738 30.4289C8.00052 30.4364 8.01575 30.44 8.03308 30.44C8.0742 30.44 8.10657 30.4233 8.13056 30.3901C8.15436 30.3568 8.16636 30.3108 8.16636 30.2522V29.9328H8.36438V30.5794H8.16636V30.4859C8.13589 30.5236 8.10391 30.5513 8.07039 30.5691C8.03726 30.587 8.00052 30.5961 7.95996 30.5961C7.88837 30.5961 7.83373 30.5735 7.79621 30.5279C7.75851 30.482 7.73986 30.4152 7.73986 30.3274L7.73985 30.3274Z" fill="black"/>
<path d="M9.18083 30.1855V30.5794H8.98129V30.2775C8.98129 30.222 8.97995 30.1838 8.97748 30.1626C8.97481 30.1416 8.97082 30.1259 8.96529 30.1158C8.95711 30.1021 8.94644 30.0916 8.93331 30.0841C8.91998 30.0768 8.90475 30.073 8.88761 30.073C8.84648 30.073 8.81392 30.0897 8.79012 30.1229C8.76613 30.1562 8.75433 30.2022 8.75433 30.2608V30.5794H8.55555V29.9327H8.75433V30.0271C8.78422 29.9896 8.81602 29.9619 8.84953 29.9438C8.88342 29.926 8.92074 29.9169 8.96149 29.9169C9.03346 29.9169 9.08811 29.9399 9.12523 29.9858C9.16217 30.0314 9.18083 30.098 9.18083 30.1855L9.18083 30.1855Z" fill="black"/>
<path d="M9.77034 29.7171H10.1253C10.2307 29.7171 10.3118 29.7415 10.3682 29.79C10.4246 29.8387 10.4527 29.9081 10.4527 29.9984C10.4527 30.0888 10.4246 30.1583 10.3682 30.2069C10.3119 30.2556 10.2307 30.2798 10.1253 30.2798H9.98436V30.5793H9.77034V29.7171ZM9.98436 29.878V30.1189H10.1024C10.1439 30.1189 10.1759 30.1086 10.1984 30.088C10.2212 30.067 10.2326 30.0371 10.2326 29.9984C10.2326 29.96 10.2212 29.9303 10.1984 29.9097C10.1759 29.8887 10.1439 29.878 10.1024 29.878L9.98436 29.878Z" fill="black"/>
<path d="M11.0571 30.1087C11.0398 30.1004 11.0225 30.0942 11.0053 30.0904C10.988 30.0863 10.9707 30.0841 10.9536 30.0841C10.9021 30.0841 10.8625 30.1013 10.8347 30.1356C10.8073 30.1695 10.7936 30.218 10.7936 30.2814V30.5794H10.5948V29.9327H10.7936V30.0389C10.8195 29.9961 10.8488 29.9652 10.882 29.9462C10.9149 29.9268 10.9545 29.9169 11.0008 29.9169C11.0073 29.9169 11.0145 29.9173 11.0221 29.9177C11.0301 29.9183 11.0415 29.9197 11.0564 29.9217L11.0571 30.1087Z" fill="black"/>
<path d="M11.452 30.0643C11.4078 30.0643 11.3739 30.0809 11.3507 30.1142C11.3278 30.1471 11.3164 30.1943 11.3164 30.2561C11.3164 30.3185 11.3278 30.3662 11.3507 30.3995C11.3739 30.4324 11.4078 30.4486 11.452 30.4486C11.495 30.4486 11.5281 30.4324 11.551 30.3995C11.5742 30.3662 11.586 30.3185 11.586 30.2561C11.586 30.1943 11.5742 30.1471 11.551 30.1142C11.5281 30.0809 11.495 30.0643 11.452 30.0643ZM11.452 29.9169C11.559 29.9169 11.6426 29.947 11.7025 30.0072C11.7629 30.0671 11.7932 30.1499 11.7932 30.2561C11.7932 30.3629 11.7629 30.4463 11.7025 30.5065C11.6426 30.5663 11.559 30.596 11.452 30.596C11.3448 30.596 11.2608 30.5663 11.1999 30.5065C11.1393 30.4463 11.1092 30.3629 11.1092 30.2561C11.1092 30.1499 11.1393 30.0671 11.1999 30.0072C11.2608 29.947 11.3448 29.9169 11.452 29.9169Z" fill="black"/>
<path d="M11.9372 29.9327H12.136V30.5675C12.136 30.654 12.1158 30.72 12.0758 30.7656C12.0362 30.8115 11.9783 30.8345 11.9021 30.8345H11.8039V30.699H11.8389C11.8764 30.699 11.9021 30.6899 11.9158 30.6721C11.9299 30.6546 11.9372 30.6198 11.9372 30.5675L11.9372 29.9327ZM11.9372 29.6807H12.136V29.8495H11.9372V29.6807Z" fill="black"/>
<path d="M12.9477 30.2545V30.3131H12.4831C12.4881 30.3619 12.5048 30.3983 12.5334 30.4225C12.5623 30.4469 12.6029 30.4589 12.6552 30.4589C12.6967 30.4589 12.7394 30.4526 12.7832 30.4399C12.8274 30.4269 12.8725 30.407 12.9187 30.3805V30.5398C12.8715 30.5584 12.8243 30.5723 12.7771 30.5818C12.7302 30.5913 12.6834 30.596 12.6362 30.596C12.5239 30.596 12.4366 30.5665 12.3742 30.5073C12.3117 30.4477 12.2805 30.3639 12.2805 30.2561C12.2805 30.1511 12.311 30.0683 12.3719 30.008C12.4332 29.9474 12.5178 29.9169 12.6255 29.9169C12.723 29.9169 12.8009 29.9476 12.8593 30.0088C12.9182 30.0702 12.9477 30.1521 12.9477 30.2545V30.2545ZM12.7436 30.1856C12.7436 30.1459 12.7323 30.1142 12.7101 30.0905C12.6882 30.0663 12.6594 30.054 12.624 30.054C12.5859 30.054 12.5547 30.0655 12.5303 30.0881C12.5063 30.1109 12.4915 30.1434 12.4854 30.1856L12.7436 30.1856Z" fill="black"/>
<path d="M13.6011 29.9526V30.1213C13.574 30.1019 13.547 30.0877 13.5196 30.0786C13.4925 30.069 13.4644 30.0643 13.435 30.0643C13.3796 30.0643 13.3364 30.0813 13.3056 30.115C13.2745 30.1489 13.2591 30.1958 13.2591 30.2561C13.2591 30.3169 13.2745 30.3642 13.3056 30.3979C13.3364 30.4318 13.3796 30.4486 13.435 30.4486C13.4659 30.4486 13.4954 30.4439 13.5234 30.4344C13.5512 30.4245 13.5771 30.4098 13.6011 30.3908V30.5604C13.57 30.5727 13.5386 30.5814 13.5066 30.5873C13.4746 30.5931 13.4423 30.596 13.4099 30.596C13.2976 30.596 13.2098 30.5663 13.1464 30.5065C13.0834 30.4463 13.0519 30.3629 13.0519 30.2561C13.0519 30.1499 13.0834 30.0671 13.1464 30.0072C13.2098 29.947 13.2976 29.9169 13.4099 29.9169C13.4428 29.9169 13.475 29.9199 13.5066 29.9256C13.538 29.9316 13.5695 29.9405 13.6011 29.9526V29.9526Z" fill="black"/>
<path d="M13.9894 29.7489V29.9327H14.1943V30.0801H13.9894V30.3543C13.9894 30.3844 13.9952 30.4049 14.007 30.4154C14.0186 30.4261 14.0414 30.4312 14.0755 30.4312H14.1776V30.5794H14.007C13.9281 30.5794 13.8724 30.5626 13.8394 30.5287C13.8069 30.4944 13.7907 30.4364 13.7907 30.3543V30.0801H13.6924V29.9327H13.7907V29.7489H13.9894Z" fill="black"/>
</svg>
