<svg width="8" height="6" viewBox="0 0 8 6" fill="none" xmlns="http://www.w3.org/2000/svg">
<path d="M7.19907 4.41624L6.71405 4.5377L7.19907 4.41624ZM0.989624 1.58591L0.620379 1.24878L-4.92334e-05 1.9283L0.907658 2.07915L0.989624 1.58591ZM5.08384 5.5L4.60353 5.63896L4.70799 6H5.08384V5.5ZM3.40253 1C4.43026 1 5.15204 1.50265 5.68085 2.20693C6.22023 2.92529 6.53696 3.83057 6.71405 4.5377L7.68409 4.29478C7.49295 3.5315 7.13538 2.47866 6.48052 1.6065C5.81509 0.720263 4.82272 0 3.40253 0V1ZM1.35887 1.92304C1.85924 1.37501 2.51321 1 3.40253 1V0C2.18529 0 1.27608 0.530619 0.620379 1.24878L1.35887 1.92304ZM0.907658 2.07915C3.20816 2.46145 4.18148 4.18011 4.60353 5.63896L5.56414 5.36104C5.09302 3.7326 3.92151 1.56628 1.07159 1.09267L0.907658 2.07915ZM6.29752 5H5.08384V6H6.29752V5ZM6.71405 4.5377C6.76785 4.75256 6.61003 5 6.29752 5V6C7.16826 6 7.91772 5.22772 7.68409 4.29478L6.71405 4.5377Z" fill="#222222"/>
</svg>
